<svg width="629" height="327" viewBox="0 0 629 327" fill="none" xmlns="http://www.w3.org/2000/svg">
<path d="M14.28 7.96L9.42 17.36V22H6V17.36L1.14 7.96H5.02L7.74 13.84L10.44 7.96H14.28ZM22.298 22.14C20.978 22.14 19.7646 21.8333 18.658 21.22C17.5646 20.6067 16.6913 19.7533 16.038 18.66C15.398 17.5533 15.078 16.3133 15.078 14.94C15.078 13.5667 15.398 12.3333 16.038 11.24C16.6913 10.1467 17.5646 9.29333 18.658 8.68C19.7646 8.06667 20.978 7.76 22.298 7.76C23.618 7.76 24.8246 8.06667 25.918 8.68C27.0246 9.29333 27.8913 10.1467 28.518 11.24C29.158 12.3333 29.478 13.5667 29.478 14.94C29.478 16.3133 29.158 17.5533 28.518 18.66C27.878 19.7533 27.0113 20.6067 25.918 21.22C24.8246 21.8333 23.618 22.14 22.298 22.14ZM22.298 19.02C23.418 19.02 24.3113 18.6467 24.978 17.9C25.658 17.1533 25.998 16.1667 25.998 14.94C25.998 13.7 25.658 12.7133 24.978 11.98C24.3113 11.2333 23.418 10.86 22.298 10.86C21.1646 10.86 20.258 11.2267 19.578 11.96C18.9113 12.6933 18.578 13.6867 18.578 14.94C18.578 16.18 18.9113 17.1733 19.578 17.92C20.258 18.6533 21.1646 19.02 22.298 19.02ZM34.7406 7.96V16.36C34.7406 17.2 34.9473 17.8467 35.3606 18.3C35.774 18.7533 36.3806 18.98 37.1806 18.98C37.9806 18.98 38.594 18.7533 39.0206 18.3C39.4473 17.8467 39.6606 17.2 39.6606 16.36V7.96H43.0806V16.34C43.0806 17.5933 42.814 18.6533 42.2806 19.52C41.7473 20.3867 41.0273 21.04 40.1206 21.48C39.2273 21.92 38.2273 22.14 37.1206 22.14C36.014 22.14 35.0206 21.9267 34.1406 21.5C33.274 21.06 32.5873 20.4067 32.0806 19.54C31.574 18.66 31.3206 17.5933 31.3206 16.34V7.96H34.7406ZM52.6422 22L49.7222 16.7H48.9022V22H45.4822V7.96H51.2222C52.3289 7.96 53.2689 8.15333 54.0422 8.54C54.8289 8.92667 55.4155 9.46 55.8022 10.14C56.1889 10.8067 56.3822 11.5533 56.3822 12.38C56.3822 13.3133 56.1155 14.1467 55.5822 14.88C55.0622 15.6133 54.2889 16.1333 53.2622 16.44L56.5022 22H52.6422ZM48.9022 14.28H51.0222C51.6489 14.28 52.1155 14.1267 52.4222 13.82C52.7422 13.5133 52.9022 13.08 52.9022 12.52C52.9022 11.9867 52.7422 11.5667 52.4222 11.26C52.1155 10.9533 51.6489 10.8 51.0222 10.8H48.9022V14.28ZM71.5073 19.52H66.2673L65.4273 22H61.8473L66.9273 7.96H70.8873L75.9673 22H72.3473L71.5073 19.52ZM70.6273 16.88L68.8873 11.74L67.1673 16.88H70.6273ZM80.8734 7.96V16.36C80.8734 17.2 81.0801 17.8467 81.4934 18.3C81.9068 18.7533 82.5134 18.98 83.3134 18.98C84.1134 18.98 84.7268 18.7533 85.1534 18.3C85.5801 17.8467 85.7934 17.2 85.7934 16.36V7.96H89.2134V16.34C89.2134 17.5933 88.9468 18.6533 88.4134 19.52C87.8801 20.3867 87.1601 21.04 86.2534 21.48C85.3601 21.92 84.3601 22.14 83.2534 22.14C82.1468 22.14 81.1534 21.9267 80.2734 21.5C79.4068 21.06 78.7201 20.4067 78.2134 19.54C77.7068 18.66 77.4534 17.5933 77.4534 16.34V7.96H80.8734ZM101.715 7.96V10.7H97.995V22H94.575V10.7H90.855V7.96H101.715ZM110.071 22.14C108.751 22.14 107.538 21.8333 106.431 21.22C105.338 20.6067 104.465 19.7533 103.811 18.66C103.171 17.5533 102.851 16.3133 102.851 14.94C102.851 13.5667 103.171 12.3333 103.811 11.24C104.465 10.1467 105.338 9.29333 106.431 8.68C107.538 8.06667 108.751 7.76 110.071 7.76C111.391 7.76 112.598 8.06667 113.691 8.68C114.798 9.29333 115.665 10.1467 116.291 11.24C116.931 12.3333 117.251 13.5667 117.251 14.94C117.251 16.3133 116.931 17.5533 116.291 18.66C115.651 19.7533 114.785 20.6067 113.691 21.22C112.598 21.8333 111.391 22.14 110.071 22.14ZM110.071 19.02C111.191 19.02 112.085 18.6467 112.751 17.9C113.431 17.1533 113.771 16.1667 113.771 14.94C113.771 13.7 113.431 12.7133 112.751 11.98C112.085 11.2333 111.191 10.86 110.071 10.86C108.938 10.86 108.031 11.2267 107.351 11.96C106.685 12.6933 106.351 13.6867 106.351 14.94C106.351 16.18 106.685 17.1733 107.351 17.92C108.031 18.6533 108.938 19.02 110.071 19.02ZM135.054 7.96V22H131.634V13.58L128.494 22H125.734L122.574 13.56V22H119.154V7.96H123.194L127.134 17.68L131.034 7.96H135.054ZM146.253 19.52H141.013L140.173 22H136.593L141.673 7.96H145.633L150.713 22H147.093L146.253 19.52ZM145.373 16.88L143.633 11.74L141.913 16.88H145.373ZM162.36 7.96V10.7H158.64V22H155.22V10.7H151.5V7.96H162.36ZM167.496 7.96V22H164.076V7.96H167.496ZM176.614 22.14C175.294 22.14 174.081 21.8333 172.974 21.22C171.881 20.6067 171.008 19.7533 170.354 18.66C169.714 17.5533 169.394 16.3133 169.394 14.94C169.394 13.5667 169.714 12.3333 170.354 11.24C171.008 10.1467 171.881 9.29333 172.974 8.68C174.081 8.06667 175.294 7.76 176.614 7.76C177.934 7.76 179.141 8.06667 180.234 8.68C181.341 9.29333 182.208 10.1467 182.834 11.24C183.474 12.3333 183.794 13.5667 183.794 14.94C183.794 16.3133 183.474 17.5533 182.834 18.66C182.194 19.7533 181.328 20.6067 180.234 21.22C179.141 21.8333 177.934 22.14 176.614 22.14ZM176.614 19.02C177.734 19.02 178.628 18.6467 179.294 17.9C179.974 17.1533 180.314 16.1667 180.314 14.94C180.314 13.7 179.974 12.7133 179.294 11.98C178.628 11.2333 177.734 10.86 176.614 10.86C175.481 10.86 174.574 11.2267 173.894 11.96C173.228 12.6933 172.894 13.6867 172.894 14.94C172.894 16.18 173.228 17.1733 173.894 17.92C174.574 18.6533 175.481 19.02 176.614 19.02ZM198.257 22H194.837L189.117 13.34V22H185.697V7.96H189.117L194.837 16.66V7.96H198.257V22ZM213.714 19.52H208.474L207.634 22H204.054L209.134 7.96H213.094L218.174 22H214.554L213.714 19.52ZM212.834 16.88L211.094 11.74L209.374 16.88H212.834ZM223.14 19.36H227.62V22H219.72V7.96H223.14V19.36ZM232.672 19.36H237.152V22H229.252V7.96H232.672V19.36ZM250.823 7.96L245.963 17.36V22H242.543V17.36L237.683 7.96H241.563L244.283 13.84L246.983 7.96H250.823ZM265.579 7.96V10.7H259.859V13.66H264.139V16.32H259.859V22H256.439V7.96H265.579ZM274.017 22.14C272.697 22.14 271.483 21.8333 270.377 21.22C269.283 20.6067 268.41 19.7533 267.757 18.66C267.117 17.5533 266.797 16.3133 266.797 14.94C266.797 13.5667 267.117 12.3333 267.757 11.24C268.41 10.1467 269.283 9.29333 270.377 8.68C271.483 8.06667 272.697 7.76 274.017 7.76C275.337 7.76 276.543 8.06667 277.637 8.68C278.743 9.29333 279.61 10.1467 280.237 11.24C280.877 12.3333 281.197 13.5667 281.197 14.94C281.197 16.3133 280.877 17.5533 280.237 18.66C279.597 19.7533 278.73 20.6067 277.637 21.22C276.543 21.8333 275.337 22.14 274.017 22.14ZM274.017 19.02C275.137 19.02 276.03 18.6467 276.697 17.9C277.377 17.1533 277.717 16.1667 277.717 14.94C277.717 13.7 277.377 12.7133 276.697 11.98C276.03 11.2333 275.137 10.86 274.017 10.86C272.883 10.86 271.977 11.2267 271.297 11.96C270.63 12.6933 270.297 13.6867 270.297 14.94C270.297 16.18 270.63 17.1733 271.297 17.92C271.977 18.6533 272.883 19.02 274.017 19.02ZM290.259 22L287.339 16.7H286.519V22H283.099V7.96H288.839C289.946 7.96 290.886 8.15333 291.659 8.54C292.446 8.92667 293.033 9.46 293.419 10.14C293.806 10.8067 293.999 11.5533 293.999 12.38C293.999 13.3133 293.733 14.1467 293.199 14.88C292.679 15.6133 291.906 16.1333 290.879 16.44L294.119 22H290.259ZM286.519 14.28H288.639C289.266 14.28 289.733 14.1267 290.039 13.82C290.359 13.5133 290.519 13.08 290.519 12.52C290.519 11.9867 290.359 11.5667 290.039 11.26C289.733 10.9533 289.266 10.8 288.639 10.8H286.519V14.28ZM305.465 22.14C304.438 22.14 303.518 21.9733 302.705 21.64C301.891 21.3067 301.238 20.8133 300.745 20.16C300.265 19.5067 300.011 18.72 299.985 17.8H303.625C303.678 18.32 303.858 18.72 304.165 19C304.471 19.2667 304.871 19.4 305.365 19.4C305.871 19.4 306.271 19.2867 306.565 19.06C306.858 18.82 307.005 18.4933 307.005 18.08C307.005 17.7333 306.885 17.4467 306.645 17.22C306.418 16.9933 306.131 16.8067 305.785 16.66C305.451 16.5133 304.971 16.3467 304.345 16.16C303.438 15.88 302.698 15.6 302.125 15.32C301.551 15.04 301.058 14.6267 300.645 14.08C300.231 13.5333 300.025 12.82 300.025 11.94C300.025 10.6333 300.498 9.61333 301.445 8.88C302.391 8.13333 303.625 7.76 305.145 7.76C306.691 7.76 307.938 8.13333 308.885 8.88C309.831 9.61333 310.338 10.64 310.405 11.96H306.705C306.678 11.5067 306.511 11.1533 306.205 10.9C305.898 10.6333 305.505 10.5 305.025 10.5C304.611 10.5 304.278 10.6133 304.025 10.84C303.771 11.0533 303.645 11.3667 303.645 11.78C303.645 12.2333 303.858 12.5867 304.285 12.84C304.711 13.0933 305.378 13.3667 306.285 13.66C307.191 13.9667 307.925 14.26 308.485 14.54C309.058 14.82 309.551 15.2267 309.965 15.76C310.378 16.2933 310.585 16.98 310.585 17.82C310.585 18.62 310.378 19.3467 309.965 20C309.565 20.6533 308.978 21.1733 308.205 21.56C307.431 21.9467 306.518 22.14 305.465 22.14ZM316.109 10.7V13.54H320.689V16.18H316.109V19.26H321.289V22H312.689V7.96H321.289V10.7H316.109ZM332.25 19.52H327.01L326.17 22H322.59L327.67 7.96H331.63L336.71 22H333.09L332.25 19.52ZM331.37 16.88L329.63 11.74L327.91 16.88H331.37ZM354.156 7.96V22H350.736V13.58L347.596 22H344.836L341.676 13.56V22H338.256V7.96H342.296L346.236 17.68L350.136 7.96H354.156ZM360.035 19.36H364.515V22H356.615V7.96H360.035V19.36ZM369.566 10.7V13.54H374.146V16.18H369.566V19.26H374.746V22H366.146V7.96H374.746V10.7H369.566ZM382.047 22.14C381.02 22.14 380.1 21.9733 379.287 21.64C378.473 21.3067 377.82 20.8133 377.327 20.16C376.847 19.5067 376.593 18.72 376.567 17.8H380.207C380.26 18.32 380.44 18.72 380.747 19C381.053 19.2667 381.453 19.4 381.947 19.4C382.453 19.4 382.853 19.2867 383.147 19.06C383.44 18.82 383.587 18.4933 383.587 18.08C383.587 17.7333 383.467 17.4467 383.227 17.22C383 16.9933 382.713 16.8067 382.367 16.66C382.033 16.5133 381.553 16.3467 380.927 16.16C380.02 15.88 379.28 15.6 378.707 15.32C378.133 15.04 377.64 14.6267 377.227 14.08C376.813 13.5333 376.607 12.82 376.607 11.94C376.607 10.6333 377.08 9.61333 378.027 8.88C378.973 8.13333 380.207 7.76 381.727 7.76C383.273 7.76 384.52 8.13333 385.467 8.88C386.413 9.61333 386.92 10.64 386.987 11.96H383.287C383.26 11.5067 383.093 11.1533 382.787 10.9C382.48 10.6333 382.087 10.5 381.607 10.5C381.193 10.5 380.86 10.6133 380.607 10.84C380.353 11.0533 380.227 11.3667 380.227 11.78C380.227 12.2333 380.44 12.5867 380.867 12.84C381.293 13.0933 381.96 13.3667 382.867 13.66C383.773 13.9667 384.507 14.26 385.067 14.54C385.64 14.82 386.133 15.2267 386.547 15.76C386.96 16.2933 387.167 16.98 387.167 17.82C387.167 18.62 386.96 19.3467 386.547 20C386.147 20.6533 385.56 21.1733 384.787 21.56C384.013 21.9467 383.1 22.14 382.047 22.14ZM394.351 22.14C393.325 22.14 392.405 21.9733 391.591 21.64C390.778 21.3067 390.125 20.8133 389.631 20.16C389.151 19.5067 388.898 18.72 388.871 17.8H392.511C392.565 18.32 392.745 18.72 393.051 19C393.358 19.2667 393.758 19.4 394.251 19.4C394.758 19.4 395.158 19.2867 395.451 19.06C395.745 18.82 395.891 18.4933 395.891 18.08C395.891 17.7333 395.771 17.4467 395.531 17.22C395.305 16.9933 395.018 16.8067 394.671 16.66C394.338 16.5133 393.858 16.3467 393.231 16.16C392.325 15.88 391.585 15.6 391.011 15.32C390.438 15.04 389.945 14.6267 389.531 14.08C389.118 13.5333 388.911 12.82 388.911 11.94C388.911 10.6333 389.385 9.61333 390.331 8.88C391.278 8.13333 392.511 7.76 394.031 7.76C395.578 7.76 396.825 8.13333 397.771 8.88C398.718 9.61333 399.225 10.64 399.291 11.96H395.591C395.565 11.5067 395.398 11.1533 395.091 10.9C394.785 10.6333 394.391 10.5 393.911 10.5C393.498 10.5 393.165 10.6133 392.911 10.84C392.658 11.0533 392.531 11.3667 392.531 11.78C392.531 12.2333 392.745 12.5867 393.171 12.84C393.598 13.0933 394.265 13.3667 395.171 13.66C396.078 13.9667 396.811 14.26 397.371 14.54C397.945 14.82 398.438 15.2267 398.851 15.76C399.265 16.2933 399.471 16.98 399.471 17.82C399.471 18.62 399.265 19.3467 398.851 20C398.451 20.6533 397.865 21.1733 397.091 21.56C396.318 21.9467 395.405 22.14 394.351 22.14ZM425.134 7.96L421.474 22H417.334L415.094 12.76L412.774 22H408.634L405.074 7.96H408.734L410.754 18.18L413.254 7.96H417.014L419.414 18.18L421.454 7.96H425.134ZM430.269 10.7V13.54H434.849V16.18H430.269V19.26H435.449V22H426.849V7.96H435.449V10.7H430.269ZM446.17 14.8C446.983 14.9733 447.636 15.38 448.13 16.02C448.623 16.6467 448.87 17.3667 448.87 18.18C448.87 19.3533 448.456 20.2867 447.63 20.98C446.816 21.66 445.676 22 444.21 22H437.67V7.96H443.99C445.416 7.96 446.53 8.28667 447.33 8.94C448.143 9.59333 448.55 10.48 448.55 11.6C448.55 12.4267 448.33 13.1133 447.89 13.66C447.463 14.2067 446.89 14.5867 446.17 14.8ZM441.09 13.64H443.33C443.89 13.64 444.316 13.52 444.61 13.28C444.916 13.0267 445.07 12.66 445.07 12.18C445.07 11.7 444.916 11.3333 444.61 11.08C444.316 10.8267 443.89 10.7 443.33 10.7H441.09V13.64ZM443.61 19.24C444.183 19.24 444.623 19.1133 444.93 18.86C445.25 18.5933 445.41 18.2133 445.41 17.72C445.41 17.2267 445.243 16.84 444.91 16.56C444.59 16.28 444.143 16.14 443.57 16.14H441.09V19.24H443.61ZM458.512 7.96V22H455.092V7.96H458.512ZM473.55 22H470.13L464.41 13.34V22H460.99V7.96H464.41L470.13 16.66V7.96H473.55V22ZM486.129 7.96V10.7H482.409V22H478.989V10.7H475.269V7.96H486.129ZM491.265 10.7V13.54H495.845V16.18H491.265V19.26H496.445V22H487.845V7.96H496.445V10.7H491.265ZM505.826 22L502.906 16.7H502.086V22H498.666V7.96H504.406C505.512 7.96 506.452 8.15333 507.226 8.54C508.012 8.92667 508.599 9.46 508.986 10.14C509.372 10.8067 509.566 11.5533 509.566 12.38C509.566 13.3133 509.299 14.1467 508.766 14.88C508.246 15.6133 507.472 16.1333 506.446 16.44L509.686 22H505.826ZM502.086 14.28H504.206C504.832 14.28 505.299 14.1267 505.606 13.82C505.926 13.5133 506.086 13.08 506.086 12.52C506.086 11.9867 505.926 11.5667 505.606 11.26C505.299 10.9533 504.832 10.8 504.206 10.8H502.086V14.28ZM520.453 19.52H515.213L514.373 22H510.793L515.873 7.96H519.833L524.913 22H521.293L520.453 19.52ZM519.573 16.88L517.833 11.74L516.113 16.88H519.573ZM525.879 14.96C525.879 13.5733 526.179 12.34 526.779 11.26C527.379 10.1667 528.212 9.32 529.279 8.72C530.359 8.10667 531.579 7.8 532.939 7.8C534.605 7.8 536.032 8.24 537.219 9.12C538.405 10 539.199 11.2 539.599 12.72H535.839C535.559 12.1333 535.159 11.6867 534.639 11.38C534.132 11.0733 533.552 10.92 532.899 10.92C531.845 10.92 530.992 11.2867 530.339 12.02C529.685 12.7533 529.359 13.7333 529.359 14.96C529.359 16.1867 529.685 17.1667 530.339 17.9C530.992 18.6333 531.845 19 532.899 19C533.552 19 534.132 18.8467 534.639 18.54C535.159 18.2333 535.559 17.7867 535.839 17.2H539.599C539.199 18.72 538.405 19.92 537.219 20.8C536.032 21.6667 534.605 22.1 532.939 22.1C531.579 22.1 530.359 21.8 529.279 21.2C528.212 20.5867 527.379 19.74 526.779 18.66C526.179 17.58 525.879 16.3467 525.879 14.96ZM551.793 7.96V10.7H548.073V22H544.653V10.7H540.933V7.96H551.793ZM556.93 7.96V22H553.51V7.96H556.93ZM566.048 22.14C564.728 22.14 563.515 21.8333 562.408 21.22C561.315 20.6067 560.441 19.7533 559.788 18.66C559.148 17.5533 558.828 16.3133 558.828 14.94C558.828 13.5667 559.148 12.3333 559.788 11.24C560.441 10.1467 561.315 9.29333 562.408 8.68C563.515 8.06667 564.728 7.76 566.048 7.76C567.368 7.76 568.575 8.06667 569.668 8.68C570.775 9.29333 571.641 10.1467 572.268 11.24C572.908 12.3333 573.228 13.5667 573.228 14.94C573.228 16.3133 572.908 17.5533 572.268 18.66C571.628 19.7533 570.761 20.6067 569.668 21.22C568.575 21.8333 567.368 22.14 566.048 22.14ZM566.048 19.02C567.168 19.02 568.061 18.6467 568.728 17.9C569.408 17.1533 569.748 16.1667 569.748 14.94C569.748 13.7 569.408 12.7133 568.728 11.98C568.061 11.2333 567.168 10.86 566.048 10.86C564.915 10.86 564.008 11.2267 563.328 11.96C562.661 12.6933 562.328 13.6867 562.328 14.94C562.328 16.18 562.661 17.1733 563.328 17.92C564.008 18.6533 564.915 19.02 566.048 19.02ZM587.691 22H584.271L578.551 13.34V22H575.131V7.96H578.551L584.271 16.66V7.96H587.691V22Z" fill="#DF6951"/>
<mask id="mask0_107_966" style="mask-type:alpha" maskUnits="userSpaceOnUse" x="244" y="123" width="385" height="12">
<rect x="244" y="123" width="385" height="12" fill="#C4C4C4"/>
</mask>
<g mask="url(#mask0_107_966)">
<path d="M301.828 120.462L302.769 120.304L300.938 120.077L301.816 119.911C302.696 119.913 303.836 120.161 304.457 120.029C304.533 119.901 303.574 119.86 303.33 119.758C303.113 119.654 302.937 119.55 302.802 119.448C303.281 119.449 303.808 119.474 304.352 119.52C305.083 119.597 305.799 119.634 306.423 119.628C307.699 119.648 308.931 119.628 310.317 119.632L309.856 119.324L311.643 119.396C311.833 119.42 312.058 119.382 312.245 119.411C313.793 119.657 314.449 119.523 315.192 119.412C315.345 119.383 315.528 119.362 315.738 119.348C317.805 119.407 319.668 119.751 321.528 119.928C321.879 119.973 322.214 120.031 322.512 120.098C323.159 120.227 323.879 120.333 324.606 120.405C325.333 120.477 326.043 120.514 326.672 120.511C328.064 120.508 329.635 120.594 331.235 120.76C331.711 120.815 332.187 120.851 332.634 120.866C333.08 120.881 333.486 120.875 333.827 120.848L334.908 121.024C335.377 120.952 335.972 120.913 336.656 120.909C337.341 120.904 338.1 120.934 338.889 120.997C339.73 121.065 340.583 121.111 341.456 121.184C343.257 121.322 345.011 121.406 346.661 121.434C349.119 121.518 351.521 121.582 354.001 121.686C355.552 121.737 357.064 121.764 358.527 121.769C360.279 121.789 362.174 121.884 364.121 122.05C364.029 122.206 363.175 122.16 362.602 122.154C360.754 122.129 358.862 122.061 356.96 122.011C356.103 121.991 355.27 121.984 354.466 121.989C353.12 121.982 351.702 121.941 350.235 121.865C347.918 121.782 345.675 121.741 343.529 121.745C343.361 121.751 343.206 121.762 343.069 121.778C343.04 121.791 343.035 121.808 343.053 121.827C343.07 121.846 343.111 121.866 343.171 121.885C343.231 121.905 343.308 121.923 343.395 121.938C343.481 121.953 343.575 121.964 343.666 121.971C344.518 122.077 345.434 122.19 346.238 122.206C346.269 122.207 346.302 122.21 346.335 122.214C346.367 122.218 346.399 122.223 346.427 122.229C348.227 122.452 349.706 122.415 351.108 122.451C353.435 122.549 355.679 122.595 357.805 122.587C358.126 122.588 358.473 122.601 358.833 122.625C361.059 122.725 363.141 122.736 364.981 122.658C365.738 122.638 366.442 122.594 367.255 122.593C367.757 122.59 368.193 122.562 368.538 122.511C368.883 122.459 369.13 122.385 369.264 122.293C369.607 122.341 369.956 122.384 370.305 122.422C370.514 122.443 370.715 122.449 370.866 122.438C371.017 122.426 371.108 122.399 371.121 122.361C371.183 122.256 370.706 122.203 370.293 122.157C370.542 122.135 370.823 122.121 371.129 122.118C372.853 122.094 374.703 122.122 376.637 122.203C378.138 122.299 379.337 122.221 380.917 122.357C381.106 122.38 381.262 122.346 381.437 122.337C381.891 122.294 382.458 122.284 383.087 122.309C383.716 122.334 384.388 122.392 385.046 122.48C385.865 122.241 387.635 122.514 388.942 122.538C389.345 122.66 388.883 122.638 388.863 122.672C388.843 122.705 388.863 122.672 388.705 122.652C387.4 122.824 385.612 122.862 383.592 122.76C383.219 122.76 382.863 122.768 382.528 122.783C382.021 122.804 381.449 122.802 380.837 122.777C380.169 122.758 379.556 122.767 379.026 122.803C378.721 122.803 378.463 122.821 378.276 122.856C378.09 122.891 377.98 122.943 377.957 123.005C378.161 123.053 378.386 123.097 378.625 123.136C379.873 123.287 381.118 123.349 382.114 123.311C383.847 123.245 385.91 123.309 387.753 123.287C388.999 123.278 390.325 123.304 391.706 123.364C391.706 123.364 391.67 123.426 391.666 123.431C391.83 123.458 392.001 123.479 392.172 123.494C392.172 123.494 392.172 123.494 392.188 123.466C392.112 123.439 392.01 123.414 391.892 123.393L391.482 123.343C391.761 123.329 392.021 123.29 392.312 123.314C392.924 123.359 393.51 123.378 394.033 123.369C394.556 123.361 395.006 123.327 395.356 123.267C395.976 123.191 396.747 123.156 397.619 123.165C398.287 123.157 398.931 123.139 399.548 123.111C399.548 123.111 399.588 123.045 399.88 123.009C399.603 122.965 399.315 122.93 399.028 122.904C397.779 122.838 396.526 122.779 395.299 122.734C394.847 122.73 394.421 122.737 394.032 122.757C392.952 122.779 391.738 122.747 390.462 122.661C390.462 122.661 390.21 122.63 390.084 122.614C390.442 122.467 391.676 122.614 392.176 122.515C392.479 122.517 393.014 122.529 392.996 122.503C392.954 122.468 392.949 122.436 392.981 122.408C393.013 122.38 393.082 122.358 393.181 122.343C393.281 122.328 393.409 122.32 393.558 122.321C393.706 122.321 393.87 122.33 394.038 122.345C395.443 122.431 396.767 122.454 397.928 122.415C398.368 122.416 398.861 122.441 399.298 122.447C399.565 122.455 399.809 122.451 400.017 122.435C401.072 122.318 402.492 122.31 404.064 122.411C404.824 122.447 405.533 122.452 406.157 122.425C406.6 122.42 406.788 122.503 407.104 122.542L408.444 122.625L406.723 122.728C407.091 122.965 407.383 123.043 407.984 123.057C408.862 123.08 409.716 123.09 410.542 123.087C411.153 123.086 411.658 123.035 412.485 123.125C412.631 123.14 412.772 123.145 412.884 123.139C413.853 123.058 415.02 123.04 416.305 123.085C416.97 122.934 418.103 123.08 419.152 123.198C419.49 123.085 418.877 123.033 418.511 122.964C419.388 122.971 420.271 122.967 421.177 122.983C421.449 122.977 421.76 122.988 422.086 123.013C422.412 123.039 422.743 123.08 423.054 123.132C423.205 123.166 423.388 123.191 423.564 123.203C423.74 123.215 423.896 123.212 423.999 123.196C424.469 123.146 425.221 123.192 425.61 123.108C425.748 123.089 425.945 123.086 426.166 123.101C426.387 123.115 426.618 123.145 426.817 123.186C426.599 123.199 426.405 123.219 426.24 123.246C425.645 123.334 425.864 123.48 426.619 123.693C427.778 123.681 428.962 123.685 430.036 123.645C430.635 123.609 431.369 123.62 432.155 123.677C432.941 123.734 433.748 123.835 434.486 123.969C434.753 124.02 435.058 124.056 435.339 124.068C435.62 124.081 435.858 124.07 436.005 124.037C436.096 124 436.124 123.952 436.087 123.898L435.329 123.805C435.329 123.805 435.359 123.754 435.366 123.743L436.455 123.735C437.031 123.735 437.632 123.749 438.177 123.745C438.977 123.717 439.891 123.733 440.861 123.791C441.756 123.851 442.636 123.896 443.492 123.926C444.321 123.957 444.922 123.858 445.71 123.842C446.307 123.83 446.963 123.843 447.654 123.88C448.847 123.945 449.942 123.945 450.839 123.88C451.885 124.231 452.393 124.288 453.364 124.193L453.821 124.166L453.946 124.241L454.295 124.224C454.947 124.21 455.6 124.195 456.281 124.19C457.227 124.222 458.25 124.31 459.248 124.444C459.437 124.467 459.695 124.547 459.861 124.609C460.028 124.672 460.39 124.86 460.657 124.983C460.366 125.072 460.045 125.158 459.814 125.26C459.791 125.278 459.793 125.299 459.821 125.322C459.848 125.344 459.9 125.368 459.972 125.391C460.045 125.414 460.135 125.435 460.236 125.453C460.338 125.472 460.447 125.486 460.556 125.496C460.768 125.516 460.978 125.53 461.176 125.537C462.151 125.547 463.085 125.539 463.969 125.512C464.291 125.474 464.733 125.47 465.224 125.502C465.715 125.533 466.226 125.598 466.678 125.687C467.834 125.634 469.178 125.649 470.616 125.732C472.137 125.682 473.974 125.784 475.395 125.673C475.362 125.729 475.509 125.825 475.713 125.88C476.037 125.964 476.403 126.041 476.797 126.11L479.802 126.243C479.914 126.311 480.054 126.381 480.221 126.45C480.335 126.505 480.534 126.559 480.775 126.6C481.017 126.641 481.282 126.666 481.514 126.67C482.112 126.69 482.613 126.645 483.326 126.757C482.228 126.863 480.747 126.849 479.148 126.717C477.645 126.617 476.199 126.567 474.864 126.569C474.424 126.568 473.844 126.574 473.707 126.635C473.402 126.806 472.605 126.779 471.675 126.747C470.944 126.713 470.277 126.717 469.727 126.759C469.178 126.801 468.763 126.88 468.515 126.989C468.453 127.095 468.603 127.185 469.244 127.247L471.91 127.493C472.304 127.461 472.676 127.424 473.028 127.381C473.619 127.323 474.35 127.308 475.163 127.335C475.975 127.362 476.848 127.431 477.713 127.537C478.155 127.592 478.597 127.646 478.918 127.62C479.199 127.591 479.458 127.555 479.693 127.513C479.74 127.486 479.759 127.454 479.749 127.419C479.919 127.435 480.089 127.456 480.254 127.481C481.57 127.776 482.59 127.771 483.516 127.694C483.767 127.672 483.958 127.636 484.212 127.607C484.466 127.579 484.555 127.542 484.786 127.553C486.627 127.65 487.157 127.327 488.708 127.34C488.783 127.327 488.83 127.309 488.844 127.285C488.858 127.262 488.838 127.235 488.787 127.207C488.677 127.181 488.551 127.159 488.418 127.143C488.286 127.126 488.152 127.116 488.029 127.113C487.315 127.071 486.685 127.084 486.246 127.149C485.935 127.175 485.605 127.196 485.26 127.212L483.706 126.745C485.211 126.787 486.634 126.787 487.943 126.744C488.228 126.719 488.712 126.761 489.114 126.769L492.07 126.813C492.678 126.817 493.196 126.743 494.043 126.914C494.043 126.914 494.603 126.942 494.752 126.918C494.902 126.895 495.564 126.75 495.959 126.656C496.417 126.682 497.052 126.755 497.337 126.731C497.836 126.671 498.268 126.594 498.625 126.502L500.411 126.634C500.409 126.751 500.344 126.861 500.216 126.962C500.077 127.06 500.082 127.177 500.23 127.304C500.379 127.432 500.666 127.565 501.07 127.695L502.833 128.379C503.121 128.425 503.428 128.456 503.712 128.467C503.996 128.479 504.243 128.471 504.421 128.444C505.18 128.365 506.03 128.303 506.788 128.224C507.767 128.345 507.515 128.541 508.227 128.712L510.531 128.998C510.883 129.262 511.241 129.516 510.172 129.604C509.959 129.62 510.103 129.721 509.909 129.763C510.74 129.961 511.654 130.021 512.496 130.143C512.828 130.231 513.106 130.324 513.316 130.418C513.546 130.559 514.014 130.703 514.617 130.819C515.22 130.935 515.911 131.014 516.54 131.038C517.596 131.112 518.676 131.224 519.734 131.368C520.095 131.418 520.466 131.454 520.822 131.475C521.178 131.495 521.511 131.499 521.798 131.486C522.821 131.464 523.687 131.386 524.34 131.258C524.985 131.149 525.855 131.096 526.87 131.105C528.606 131.32 528.957 131.644 530.007 131.93L528.192 131.962C528.127 132.073 528.247 132.213 527.503 132.211C526.759 132.208 527.136 132.314 527.377 132.422C527.462 132.476 527.628 132.532 527.847 132.579C528.066 132.627 528.324 132.664 528.578 132.684L530.123 132.822C530.671 132.874 531.201 132.896 531.655 132.886C532.109 132.876 532.47 132.834 532.698 132.764C532.96 132.698 533.321 132.654 533.759 132.633C534.317 132.579 534.776 132.499 535.119 132.396L537.301 132.546C537.393 132.442 537.693 132.369 538.149 132.34C538.605 132.31 539.189 132.326 539.803 132.384L541.273 132.477C542.907 132.578 543.266 132.545 543.744 132.251L541.784 131.728C542.069 131.59 542.344 131.469 542.62 131.348C542.131 131.175 541.48 131.012 540.731 130.875C540.032 130.728 539.314 130.585 538.579 130.447C537.781 130.307 536.938 130.184 535.948 130.026C535.775 129.974 535.524 129.884 535.203 129.796C534.882 129.711 534.547 129.628 534.199 129.546C534.265 129.435 534.324 129.335 534.197 129.206C534.807 129.247 535.437 129.319 536.031 129.416C536.625 129.512 537.163 129.63 537.597 129.758C537.67 129.781 537.76 129.802 537.86 129.821C537.96 129.84 538.068 129.855 538.177 129.866C539.249 129.945 539.761 130.11 540.285 130.312C540.638 130.415 541.093 130.507 541.587 130.575C542.534 130.692 543.461 130.843 544.367 130.973C544.644 131.016 544.932 131.052 545.219 131.078C546.166 131.163 547.118 131.281 548.029 131.426C548.326 131.463 548.611 131.512 548.86 131.569C549.11 131.626 549.316 131.689 549.462 131.753C549.236 131.823 549.115 131.912 549.104 132.013C549.065 132.08 549.729 132.216 550.044 132.315C550.358 132.414 549.742 132.367 549.533 132.377C548.674 132.396 548.515 132.436 549.029 132.655C549.201 132.724 549.315 132.793 549.364 132.857C549.413 132.922 549.396 132.981 549.315 133.031C549.193 133.237 548.821 133.406 548.566 133.607C548.962 133.74 549.624 133.881 549.696 134.046C549.731 134.082 549.804 134.121 549.91 134.159C550.017 134.197 550.154 134.233 550.311 134.265C550.727 134.335 551.105 134.418 551.416 134.508C551.726 134.598 551.962 134.693 552.104 134.786C552.15 134.824 552.262 134.865 552.418 134.899C552.573 134.934 552.76 134.96 552.942 134.973C553.158 134.989 553.352 134.987 553.484 134.967C553.615 134.948 553.673 134.913 553.647 134.869C553.652 134.787 553.624 134.702 553.561 134.614C553.597 134.553 553.634 134.491 553.49 134.39C554.137 134.427 554.817 134.501 555.455 134.604C556.093 134.708 556.664 134.836 557.108 134.976C557.599 135.12 558.051 135.272 558.595 135.44C558.483 135.63 558.483 135.63 559.64 135.964L565.779 136.127L567.037 136.349C568.21 136.542 568.489 136.528 569.226 136.429L569.722 136.335C570.764 136.464 571.964 136.612 572.615 136.371C572.827 136.528 572.965 136.581 572.917 136.605C572.606 136.838 572.065 137.035 571.317 137.189C571.126 137.225 570.992 137.28 570.769 137.312C570.052 137.494 569.886 137.775 570.304 138.097C570.512 138.24 570.814 138.386 571.2 138.53C570.635 138.731 569.886 138.898 568.975 139.025C568.201 139.124 567.564 139.256 567.082 139.418C566.649 139.581 566 139.704 565.173 139.779C564.754 139.811 564.448 139.874 564.286 139.961C564.238 140.199 564.349 140.453 564.616 140.719C564.667 140.8 564.81 140.887 565.035 140.974C565.26 141.061 565.56 141.145 565.912 141.22C565.912 141.22 566.082 141.277 566.163 141.311C566.231 141.598 565.977 141.852 565.418 142.054C565.326 142.112 565.138 142.153 564.875 142.174C564.612 142.195 564.283 142.195 563.923 142.174C563.164 142.139 562.455 142.135 561.721 142.116C560.93 142.089 560.233 142.11 559.704 142.178C559.175 142.246 558.833 142.358 558.714 142.502C558.706 142.543 558.683 142.582 558.644 142.619C558.622 142.638 558.61 142.658 558.608 142.68L560.294 143.152L558.387 143.339C558.275 143.529 559.19 143.642 559.649 143.782L559.365 143.861C559 143.905 558.508 143.82 558.063 143.771L557.621 143.716L557.568 143.805C557.293 143.927 556.29 143.79 555.898 143.879C555.507 143.968 555.786 144.068 556.373 144.165C556.78 144.237 557.218 144.294 557.653 144.332C558.088 144.371 558.509 144.389 558.885 144.386C559.108 144.377 559.294 144.355 559.431 144.323C560.222 144.184 561.097 144.065 562.048 143.966C562.777 143.877 563.69 143.839 564.723 143.855C565.026 143.849 565.391 143.87 565.755 143.915C566.119 143.96 566.458 144.026 566.712 144.102L567.247 144.114C567.247 144.114 567.539 144.192 567.498 144.205C567.294 144.436 567.531 144.719 568.172 145.011L567.614 145.038C566.817 145.011 567.323 145.187 567.203 145.273C566.637 145.257 565.901 145.184 565.633 145.294L565.231 145.286L565.388 145.305L565.579 145.269L566.329 145.434C565.974 145.461 565.716 145.495 565.403 145.51C565.229 145.523 565.091 145.546 564.997 145.577C564.903 145.609 564.854 145.648 564.854 145.693C564.855 145.762 564.761 145.82 564.582 145.862C564.403 145.903 564.145 145.927 563.832 145.931C563.458 145.932 563.244 146.007 563.025 146.034L563.977 146.486C563.977 146.486 563.503 146.428 563.761 146.507L563.794 146.452L564.371 146.565C564.787 146.664 565.077 146.688 565.323 146.617C565.568 146.546 565.512 146.64 565.63 146.613C565.587 146.686 565.32 146.736 565.091 146.779C564.826 146.813 564.527 146.838 564.199 146.854C564.79 147.172 564.819 147.182 563.955 147.266C563.092 147.35 563.39 147.476 562.668 147.495C561.945 147.513 562.767 147.728 563.25 147.77C563.609 147.797 563.974 147.84 564.321 147.896C564.669 147.951 564.99 148.018 565.263 148.091L565.118 148.335C564.905 148.315 564.692 148.289 564.486 148.257C563.786 148.123 563.15 147.996 562.527 148.074L562.824 148.26L560.651 148.153C560.707 148.292 561.039 148.451 561.575 148.595C561.494 148.675 561.444 148.758 561.426 148.846C561.39 148.907 561.176 148.868 561.036 148.875C560.539 148.885 560.13 148.927 559.847 148.996C559.564 149.065 559.415 149.159 559.412 149.271C559.356 149.366 560.121 149.562 560.599 149.555C561.793 149.574 563.085 149.647 564.403 149.77C565.207 149.786 565.32 149.537 566.643 149.707C566.669 149.822 566.5 149.915 566.16 149.972C565.821 150.029 565.33 150.047 564.761 150.023C565.085 150.278 566.875 150.345 566.954 150.611C566.508 150.592 566.032 150.548 565.571 150.483C565.111 150.417 564.682 150.333 564.329 150.238C564.252 150.215 564.157 150.193 564.05 150.176C563.944 150.158 563.83 150.145 563.72 150.137C563.609 150.129 563.506 150.127 563.419 150.132C563.332 150.136 563.264 150.146 563.222 150.161C563.47 150.257 563.743 150.369 564.054 150.473C564.365 150.577 564.44 150.622 564.664 150.644C566.337 150.851 567.133 151.225 568.58 151.47C568.959 151.517 569.006 151.666 568.678 151.649C568.365 151.632 568.081 151.634 567.859 151.655C567.638 151.676 567.486 151.715 567.421 151.768C567.178 151.829 566.876 151.878 566.521 151.913C568.006 152.296 569.776 152.635 571.665 152.897C572.023 152.949 572.397 152.98 572.73 152.987C573.785 152.987 574.904 153.018 576.066 153.077C576.477 153.094 576.858 153.092 577.186 153.073C578.264 153.027 579.12 153.127 579.902 153.409L581.195 153.856C581.153 153.928 580.935 154.009 580.768 154.12L581.779 154.358L589.492 153.809L591.04 154.341L593.261 154.311C593.431 154.327 593.602 154.348 593.766 154.374C594.215 154.531 594.566 154.682 595.053 154.832C595.54 154.982 596.411 155 597.018 155.177C597.625 155.353 598.232 155.357 598.983 155.462C599.054 155.599 598.981 155.722 598.769 155.824C598.7 155.94 598.318 156.013 598.252 156.124C598.26 156.236 598.118 156.332 597.84 156.402C597.562 156.472 597.156 156.514 596.66 156.524C595.27 156.763 593.594 156.934 591.683 157.03C591.515 157.037 591.376 157.053 591.274 157.078C591.172 157.102 591.11 157.134 591.091 157.172C591.094 157.281 590.966 157.375 590.718 157.448C590.47 157.521 590.107 157.57 589.656 157.591C589.536 157.596 589.446 157.609 589.396 157.631C589.225 157.645 589.1 157.671 589.034 157.707C588.968 157.743 588.963 157.789 589.019 157.838C589.074 157.888 589.189 157.94 589.353 157.99C589.516 158.04 589.722 158.086 589.951 158.124C590.283 158.184 590.622 158.242 590.966 158.297C590.947 158.33 590.604 158.336 590.654 158.366C590.789 158.462 590.821 158.552 590.746 158.629C590.671 158.705 590.492 158.767 590.223 158.808L592.066 159.586C593.185 159.694 594.283 159.876 595.151 160.099C595.152 160.136 595.102 160.166 595.006 160.188C594.91 160.21 594.771 160.222 594.603 160.223C594.153 160.239 593.728 160.269 593.243 160.287C592.947 160.3 592.7 160.329 592.518 160.372C592.335 160.415 592.22 160.471 592.18 160.538L593.262 160.827C592.916 160.897 592.658 160.931 592.429 160.975C592.559 161.065 592.782 161.16 593.082 161.249C593.381 161.339 593.748 161.423 594.155 161.493C594.265 161.507 594.376 161.518 594.483 161.524C594.59 161.53 594.69 161.532 594.778 161.528C595.617 161.429 596.597 161.604 597.549 161.77C598.502 161.936 599.019 162.035 599.722 162.164L601.067 162.182C601.407 162.243 601.711 162.314 601.954 162.391C602.197 162.468 602.372 162.548 602.465 162.624C602.393 162.746 601.755 162.679 601.375 162.692C600.473 162.768 599.287 162.752 598.013 162.646C597.697 162.606 597.374 162.638 597.067 162.642C596.404 162.657 595.767 162.682 595.159 162.716C594.758 162.748 594.384 162.787 594.038 162.834C593.946 162.99 595.4 163.11 594.575 163.187C594.859 163.222 594.965 163.271 595.111 163.254C596.047 163.355 596.969 163.405 597.771 163.398C599.309 163.376 601.055 163.447 602.867 163.605C604.822 163.768 606.698 163.837 608.339 163.805C608.965 163.803 609.663 163.837 610.382 163.903C611.232 163.994 612.075 164.052 612.858 164.072C613.117 164.073 613.406 164.088 613.7 164.118C613.995 164.147 614.288 164.189 614.554 164.24C614.531 164.279 614.277 164.307 614.334 164.326C615.144 164.618 615.472 164.921 616.719 165.219C617.571 165.325 618.55 165.446 619.107 165.306C619.665 165.166 619.465 165.046 618.356 164.687C618.596 164.682 618.886 164.699 619.175 164.735C619.463 164.77 619.732 164.823 619.934 164.883L620.893 165.151L621.758 165.407C621.682 165.535 621.623 165.635 621.56 165.741C621.461 165.853 621.57 165.99 621.871 166.132C622.052 166.209 622.211 166.287 622.344 166.364C622.884 166.671 623.041 166.961 622.796 167.202C622.326 167.548 621.672 167.867 620.842 168.154C619.964 168.434 619.484 168.786 618.762 169.091C618.393 169.23 617.945 169.354 617.423 169.463C616.433 169.704 615.348 169.934 614.354 170.181C613.36 170.429 612.238 170.606 611.135 170.81C609.492 171.052 607.716 171.261 605.817 171.435C604.642 171.588 603.435 171.737 602.348 171.913C601.064 172.112 599.556 172.254 597.861 172.337C596.364 172.436 595.026 172.583 593.874 172.775C593.753 172.796 593.658 172.822 593.59 172.853C593.383 173.049 592.801 173.186 591.934 173.245C591.987 173.303 592.054 173.361 592.136 173.42C592.256 173.49 592.282 173.555 592.208 173.608C592.135 173.661 591.966 173.698 591.724 173.715C591.031 173.763 590.455 173.846 590.021 173.958C589.862 173.986 589.763 174.027 589.733 174.077C589.704 174.128 589.743 174.186 589.85 174.247C589.944 174.31 589.951 174.368 589.87 174.413C589.788 174.458 589.623 174.489 589.394 174.501C588.807 174.561 588.179 174.609 587.513 174.645C586.096 174.724 584.448 174.723 582.669 174.642C582.48 174.618 582.289 174.654 582.068 174.627C580.809 174.536 579.641 174.522 578.703 174.587C577.604 174.612 576.454 174.607 575.295 174.618C573.621 174.61 572.076 174.658 570.704 174.76C569.136 174.662 568.255 174.833 566.931 174.837C565.709 174.854 564.551 174.896 563.468 174.963C561.721 175.051 559.981 175.128 558.259 175.232C556.644 175.281 555.157 175.375 553.823 175.512C553.312 175.574 552.386 175.478 552.038 175.608C551.69 175.738 550.988 175.722 550.42 175.766L548.628 175.872C548.32 175.898 547.981 175.914 547.617 175.92C545.952 175.929 544.798 176.102 543.252 176.138L543.094 176.118C540.349 176.377 537.208 176.518 533.763 176.539C531.751 176.618 529.55 176.615 527.415 176.673C526.905 176.789 525.702 176.646 525.064 176.752C524.425 176.858 523.381 176.788 522.558 176.806C521.734 176.823 520.929 176.867 520.049 176.865C519.284 176.866 518.639 176.913 518.171 177.003C517.103 177.151 515.802 177.239 514.324 177.261C512.37 177.3 510.522 177.387 508.534 177.368C508.563 177.476 508.441 177.568 508.181 177.635C507.921 177.701 507.533 177.74 507.056 177.746C504.93 177.788 503.003 177.895 500.849 177.927L500.273 177.927L493.831 177.99C492.096 178.002 490.424 178.021 488.654 178.035C487.991 177.953 487.974 178.094 487.516 178.067C487.388 177.998 487.237 177.967 487.011 178.005L486.961 178.088L479.61 178.199C476.732 178.28 473.704 178.304 470.553 178.272C469.805 178.28 469.108 178.307 468.471 178.354C467.88 178.371 467.265 178.379 466.628 178.377C465.766 178.356 464.924 178.345 464.105 178.345C461.951 178.377 459.691 178.36 457.332 178.336C454.974 178.313 453.187 178.354 451.088 178.351C449.667 178.348 448.252 178.334 446.78 178.301C446.078 178.286 445.212 178.203 444.485 178.172C443.757 178.142 443.52 178.142 443.423 178.19C443.107 178.324 442.311 178.237 441.675 178.224C440.434 178.202 440.258 178.156 439.921 177.81L441.443 177.7C441.817 177.665 442.286 177.658 442.806 177.682C443.326 177.706 443.88 177.758 444.413 177.835C444.623 177.868 444.843 177.894 445.059 177.911C445.276 177.929 445.485 177.938 445.674 177.937C447.21 177.919 448.725 177.879 450.201 177.847L450.417 177.826L450.43 177.517C450.235 177.487 450.033 177.462 449.831 177.443L442.426 177.242C440.727 177.193 438.963 177.082 437.295 177.037C435.628 176.992 434.729 176.964 433.435 176.917C432.889 176.891 432.333 176.856 431.769 176.812C431.802 176.783 431.821 176.751 431.825 176.718C431.855 176.668 431.895 176.601 431.655 176.547C431.394 176.472 431.045 176.407 430.678 176.367C430.333 176.34 429.999 176.325 429.688 176.322C428.186 176.296 426.471 176.133 424.908 175.867L424.363 176.044C422.016 175.945 419.634 175.847 417.182 175.752C416.691 175.726 416.176 175.677 415.675 175.607C415.139 175.541 414.645 175.402 414.08 175.326C413.522 175.272 412.967 175.229 412.427 175.199C412.573 175.153 412.766 175.117 412.999 175.091C413.229 175.082 413.396 175.053 413.477 175.009C413.558 174.966 413.548 174.909 413.448 174.848C413.274 174.743 413.197 174.644 413.577 174.631C413.928 174.607 414.18 174.555 414.302 174.481C414.423 174.407 414.41 174.315 414.264 174.214C414.2 174.156 414.155 174.098 414.129 174.042L413.971 174.023C413.451 173.815 412.411 173.74 411.664 173.57C411.312 173.521 410.947 173.492 410.628 173.489C409.802 173.453 408.998 173.437 408.144 173.391C407.737 173.37 407.31 173.331 406.89 173.277C406.29 173.203 406.227 173.195 405.879 172.925C406.42 172.93 406.849 172.889 407.093 172.811C407.337 172.732 407.382 172.62 407.219 172.494C406.773 172.218 406.301 171.926 404.283 171.73C404.941 171.72 405.575 171.701 406.181 171.672C406.357 171.666 406.489 171.646 406.559 171.614C406.629 171.583 406.634 171.541 406.573 171.495C406.511 171.449 406.387 171.401 406.216 171.357C406.046 171.314 405.837 171.276 405.618 171.25C404.552 171.094 403.441 170.99 402.408 170.948C401.538 170.93 400.752 170.94 399.736 170.94L398.536 170.791C398.556 170.758 398.38 170.712 398.424 170.694C398.729 170.523 399.066 170.355 399.412 170.171C398.859 170.072 398.38 169.952 398.029 169.825C397.679 169.698 397.471 169.57 397.431 169.454C397.401 169.419 397.409 169.387 397.454 169.361C397.499 169.335 397.58 169.314 397.691 169.301C398.007 169.279 398.251 169.236 398.403 169.176C398.556 169.117 398.614 169.041 398.573 168.957L397.64 168.644C394.831 168.421 392.073 168.261 389.416 168.169L387.017 168.099C386.728 168.015 386.818 167.978 387.09 167.976C387.362 167.974 388.128 167.997 388.663 168.01C389.125 168.026 389.535 168.015 389.854 167.979C390.172 167.942 390.389 167.88 390.482 167.799L389.677 167.443C389.716 167.376 389.772 167.281 390.209 167.288C390.508 167.28 390.727 167.246 390.833 167.192C390.939 167.138 390.925 167.067 390.792 166.99C390.772 166.934 390.802 166.883 390.881 166.839C391.527 166.836 392.17 166.838 392.756 166.821C393.029 166.815 393.26 166.794 393.432 166.76C393.604 166.726 393.715 166.679 393.755 166.622C393.776 166.567 393.725 166.504 393.605 166.438C393.485 166.372 393.3 166.306 393.064 166.244C392.146 166.167 391.305 166.166 390.728 166.241C390.522 166.3 390.191 166.332 389.779 166.333C389.367 166.334 388.893 166.304 388.419 166.248C387.877 166.183 387.336 166.154 386.894 166.167C386.451 166.18 386.136 166.234 386.005 166.319C385.449 166.286 384.955 166.261 384.468 166.224C383.894 166.178 383.352 166.165 382.899 166.185C382.175 166.2 381.394 166.191 380.576 166.16C378.215 166.083 375.852 166.011 373.567 165.979C372.962 165.97 372.439 165.994 371.841 165.974C371.243 165.954 370.77 166.009 370.022 165.898C369.88 165.881 369.737 165.87 369.604 165.866C369.471 165.862 369.352 165.865 369.257 165.875C367.944 165.962 366.404 165.975 364.728 165.911C362.433 165.896 360.053 165.852 357.755 165.842C357.08 165.85 356.443 165.873 355.85 165.911C355.398 165.933 354.926 165.948 354.434 165.956C354.057 165.963 353.696 165.942 353.76 166.064C353.823 166.185 353.259 166.109 352.933 166.087C351.814 166.028 350.671 165.948 349.516 165.849C348.378 165.74 347.262 165.678 346.237 165.664C345.496 165.655 344.732 165.686 343.78 165.521C343.816 165.459 343.853 165.398 344.06 165.334C343.283 165.158 342.397 165.007 341.475 164.893C340.553 164.779 339.621 164.705 338.756 164.677L337.564 164.345C337.27 164.305 336.971 164.277 336.683 164.261C336.396 164.245 336.126 164.241 335.891 164.251C335.71 164.256 335.488 164.243 335.268 164.216C335.048 164.189 334.843 164.148 334.692 164.102C334.465 164.044 334.189 163.993 333.897 163.957C333.605 163.921 333.31 163.901 333.05 163.899C332.231 163.863 331.356 163.779 330.516 163.657C330.298 163.585 330.162 163.511 330.123 163.444C330.085 163.376 330.147 163.319 330.3 163.278C330.549 163.206 330.688 163.114 330.71 163.008C330.732 162.902 330.637 162.784 330.429 162.661C330.323 162.585 330.287 162.514 330.325 162.451C330.362 162.388 330.472 162.334 330.647 162.293C331.3 162.106 331.125 162 330.056 161.689C329.882 161.637 329.673 161.588 329.441 161.546C329.21 161.504 328.961 161.47 328.71 161.444C328.122 161.394 327.542 161.356 326.981 161.332C326.665 161.293 326.341 161.324 325.977 161.309C324.159 161.233 323.892 161.111 323.303 160.846L322.874 160.656C322.078 160.502 321.207 160.373 320.325 160.281C319.442 160.188 318.57 160.133 317.77 160.119C317.452 160.118 317.087 160.092 316.73 160.044C315.569 159.899 314.393 159.798 313.28 159.748C312.586 159.721 311.838 159.649 311.127 159.542C310.415 159.434 309.769 159.296 309.266 159.144C308.815 159.007 308.225 158.883 307.578 158.791C306.82 158.697 306.75 158.587 307.173 158.502C307.596 158.417 308.305 158.308 308.934 158.219C309.153 158.188 309.288 158.139 309.325 158.076C309.363 158.013 309.3 157.939 309.145 157.863C309.045 157.731 309.028 157.607 309.093 157.492C309.128 157.444 309.104 157.39 309.022 157.332C308.94 157.274 308.803 157.214 308.619 157.156C308.435 157.098 308.208 157.043 307.955 156.996C307.702 156.949 307.428 156.909 307.151 156.881C305.983 156.737 304.846 156.596 303.655 156.49C303.156 156.44 302.657 156.378 302.171 156.306C301.177 156.128 300.112 155.98 299.041 155.871C298.532 155.822 298.035 155.737 297.656 155.634C296.463 155.355 295.363 155.063 294.378 154.762C294.14 154.668 293.829 154.577 293.464 154.494C293.1 154.411 292.689 154.337 292.258 154.278C291.911 154.235 291.628 154.14 291.36 154.077C291.166 153.932 291.145 153.797 291.3 153.685C291.455 153.574 291.781 153.49 292.246 153.441C292.688 153.382 293.101 153.314 293.482 153.241C293.943 153.183 294.489 153.148 295.103 153.138C295.829 153.106 296.367 153.017 296.645 152.881C294.656 152.634 292.764 152.281 291.021 152.363L289.696 152.14C289.749 152.05 289.795 151.973 289.838 151.9C290.153 151.769 290.252 151.603 290.125 151.416C290.021 151.326 290.03 151.244 290.152 151.178C290.274 151.113 290.505 151.066 290.821 151.043C292.691 150.802 294.855 150.64 296.609 150.368C297.159 150.317 297.803 150.294 298.513 150.299C299.201 150.283 299.172 150.16 298.381 150.008C297.937 149.929 297.484 149.853 297.025 149.781C294.999 149.768 294.173 150.132 291.861 150.031L290.789 149.552C290.5 149.544 290.218 149.541 289.947 149.543L286.071 149.738C285.748 149.747 285.496 149.781 285.345 149.834C285.194 149.887 285.149 149.957 285.215 150.038C285.241 150.136 285.188 150.226 285.057 150.305C284.972 150.36 285.026 150.433 285.207 150.509C285.615 150.678 285.092 150.703 284.761 150.746C284.677 150.75 284.58 150.75 284.475 150.745C284.37 150.74 284.261 150.73 284.152 150.717C284.043 150.703 283.938 150.686 283.842 150.666C283.746 150.646 283.662 150.624 283.593 150.601C283.011 150.44 282.502 150.269 281.93 150.091C282.336 149.92 281.859 149.64 282.492 149.486C282.563 149.455 282.592 149.417 282.576 149.375C282.56 149.333 282.5 149.288 282.4 149.241C282.142 149.122 282.019 149.005 282.044 148.903C282.068 148.801 282.24 148.718 282.54 148.661L282.577 148.6C281.783 148.394 281.994 148.211 281.682 147.994L280.919 147.851C279.021 147.509 279.018 147.514 277.384 147.527C277.054 147.397 277.473 147.377 277.787 147.362L280.415 147.216C282.133 147.118 283.902 147.05 285.821 147.013C287.741 146.976 289.881 146.853 291.865 146.765C291.966 146.758 292.042 146.744 292.089 146.725C292.136 146.706 292.151 146.682 292.134 146.655C292.055 146.625 291.952 146.597 291.832 146.572C291.712 146.547 291.578 146.525 291.441 146.509C290.809 146.431 290.161 146.38 289.488 146.315L288.234 146.201L287.848 146.052C287.597 145.961 287.425 145.85 287.091 145.785C286.816 145.737 286.517 145.7 286.226 145.678C285.935 145.657 285.662 145.652 285.435 145.664C284.808 145.693 284.24 145.737 283.64 145.776C283.041 145.815 282.711 145.858 282.191 145.877C281.135 145.886 280.115 145.909 279.134 145.946C278.308 146.035 277.544 146.14 276.847 146.26C276.412 146.308 276.005 146.365 275.263 146.303C274.911 146.247 274.607 146.173 274.405 146.094C274.204 146.016 274.117 145.938 274.162 145.874C274.201 145.824 274.314 145.785 274.489 145.759C274.664 145.734 274.896 145.724 275.162 145.729C275.908 145.72 276.597 145.689 277.216 145.637C278.078 145.543 279.128 145.502 280.303 145.518C280.702 145.531 280.969 145.481 281.317 145.464C281.666 145.448 281.962 145.407 282.35 145.437C283.558 145.515 284.137 145.395 284.861 145.318C285.106 145.283 285.257 145.228 285.299 145.157C285.341 145.087 285.272 145.003 285.098 144.917C284.764 144.746 284.355 144.573 283.879 144.402C283.633 144.318 283.319 144.238 282.96 144.169C282.601 144.1 282.208 144.043 281.811 144.003C281.573 143.897 281.447 143.794 281.442 143.702C281.438 143.609 281.556 143.531 281.785 143.474C282.371 143.343 282.89 143.211 284.203 143.284C284.82 143.311 285.4 143.317 285.921 143.299C287.078 143.276 288.411 143.328 289.797 143.451C290.155 143.482 290.507 143.504 290.843 143.515C293.238 143.59 295.52 143.628 297.809 143.655C299.021 143.668 300.243 143.664 301.509 143.701C304.477 143.782 307.179 143.74 310.043 143.767C311.544 143.78 312.887 143.726 314.002 143.606C314.219 143.566 314.406 143.519 314.559 143.466C313.82 143.327 313.009 143.217 312.202 143.146C311.395 143.076 310.621 143.047 309.952 143.063C309.585 143.102 309.11 143.109 308.581 143.083C308.051 143.058 307.488 143.001 306.954 142.918L308.507 142.872C309.536 142.85 310.591 142.843 311.592 142.812C313.183 142.758 314.657 142.672 316.304 142.637C317.634 142.605 318.824 142.523 319.837 142.394C320.569 142.3 321.405 142.233 322.327 142.195C322.983 142.174 322.983 142.174 323.403 141.981C323.07 141.857 322.64 141.839 322.235 141.837C319.805 141.758 317.493 141.745 315.346 141.796C314.262 141.8 313.301 141.853 312.508 141.952C312.314 141.994 311.818 141.974 311.419 141.96C310.169 141.94 308.975 141.946 307.85 141.978C306.295 142.032 304.563 142.02 302.722 141.94C302.373 141.843 302.775 141.851 302.794 141.818C304.221 141.756 305.619 141.684 307.073 141.631C307.471 141.612 307.896 141.603 308.343 141.603C310.015 141.636 311.407 141.545 312.326 141.344C312.372 141.266 312.977 141.276 313.244 141.225C313.376 141.181 313.463 141.13 313.504 141.072C313.115 140.928 312.675 140.928 312.336 140.927C311.353 140.943 310.407 140.974 309.503 141.018C308.663 141.061 307.733 141.072 306.738 141.052C306.004 141.033 305.377 141.063 304.636 141.055C304.234 141.038 303.818 141.01 303.397 140.973C303.866 140.873 304.504 140.811 305.266 140.792C305.844 140.732 306.566 140.714 306.658 140.559C306.385 140.447 306.082 140.445 305.837 140.457C305.329 140.457 304.839 140.464 304.368 140.478C303.369 140.51 302.289 140.51 301.148 140.479C300.547 140.468 299.977 140.471 299.447 140.49C298.247 140.514 297.096 140.569 295.997 140.594C293.745 140.619 291.691 140.711 289.527 140.76C289.046 140.772 288.614 140.814 287.98 140.741C287.345 140.669 287.317 140.659 287.242 140.614C287.064 140.539 287.01 140.466 287.091 140.41C287.217 140.359 287.463 140.33 287.783 140.329C289.718 140.246 291.552 140.131 293.276 139.982C294.034 139.952 294.699 139.892 295.246 139.802C295.68 139.74 296.195 139.7 296.775 139.681C297.618 139.636 298.497 139.604 299.408 139.583C299.832 139.572 300.193 139.539 300.469 139.486C300.745 139.433 300.93 139.361 301.015 139.274L299.897 138.987C299.722 138.973 299.548 138.962 299.376 138.952L290.103 139.159L289.185 139.165C288.179 139.148 287.933 139.105 286.978 138.772C289.157 138.694 290.87 138.465 291.946 138.109C291.687 138.071 291.422 138.038 291.156 138.012C289.415 137.927 287.769 137.905 286.282 137.945C285.398 137.949 284.49 137.938 283.578 137.933C283.845 137.769 284.866 137.818 285.532 137.781C287.123 137.723 288.53 137.603 289.707 137.426C290.113 137.357 290.621 137.313 291.208 137.295C291.795 137.289 292.286 137.248 292.637 137.173C292.988 137.099 293.189 136.995 293.222 136.87C293.277 136.757 293.397 136.651 293.578 136.556C293.257 136.42 292.748 136.29 292.146 136.19C291.544 136.09 290.89 136.027 290.307 136.013C289.064 135.957 287.773 135.866 286.47 135.741C285.821 135.678 285.184 135.642 284.601 135.635C284.087 135.63 283.503 135.584 282.938 135.506C282.373 135.427 281.857 135.32 281.471 135.2C280.948 135.051 280.461 134.901 279.974 134.751C279.487 134.602 278.921 134.412 278.353 134.228C277.851 134.199 277.363 134.181 276.894 134.173C276.53 134.18 276.104 134.16 275.668 134.115C275.232 134.071 274.804 134.004 274.434 133.922C274.651 133.841 274.896 133.77 275.155 133.677C274.8 133.554 274.543 133.428 274.398 133.307C274.254 133.187 274.226 133.074 274.317 132.976C274.369 132.887 273.983 132.737 273.85 132.619C273.678 132.518 273.646 132.423 273.758 132.347C273.869 132.271 274.119 132.218 274.474 132.195C274.915 132.152 275.274 132.088 275.536 132.004C275.623 131.982 275.667 131.953 275.665 131.918C275.662 131.883 275.613 131.844 275.522 131.804C275.431 131.764 275.301 131.725 275.144 131.69C274.986 131.655 274.807 131.626 274.621 131.604C274.053 131.543 273.489 131.504 272.962 131.488C272.053 131.459 271.182 131.441 270.351 131.434C269.431 131.422 268.408 131.353 267.386 131.234C266.47 131.12 265.649 131.018 265.202 130.802C264.754 130.585 264.038 130.592 263.488 130.434C263.797 130.292 264.346 130.193 265.081 130.148C265.561 130.132 265.963 130.089 266.259 130.023C266.555 129.957 266.739 129.868 266.8 129.764L265.129 129.324C263.794 129.117 263.056 129.276 261.614 129.193L263.1 129.031C263.13 129.015 263.141 128.996 263.133 128.975C262.989 128.647 262.759 128.576 261.24 128.394L260.388 128.289L259.039 128.163C258.823 128.096 258.673 128.026 258.606 127.96C258.538 127.894 258.554 127.834 258.652 127.787C258.85 127.708 258.91 127.606 258.827 127.492C258.696 127.417 258.685 127.347 258.796 127.295C258.907 127.243 259.133 127.213 259.435 127.209C259.676 127.203 259.694 127.116 259.825 127.066C259.955 126.998 260.178 126.946 260.478 126.913C260.778 126.88 261.148 126.867 261.564 126.876C262.79 126.882 263.941 126.857 264.998 126.799L264.809 126.776C265.91 126.826 266.94 126.833 267.848 126.794C268.758 126.745 269.925 126.777 270.892 126.747C271.679 126.754 272.278 126.687 272.562 126.56C272.837 126.438 273.837 126.467 274.602 126.49C275.056 126.505 275.494 126.511 275.913 126.509C276.474 126.481 277.177 126.507 277.903 126.582C278.12 126.605 278.335 126.617 278.526 126.617C280.371 126.649 282.213 126.686 284.033 126.702C284.453 126.693 284.946 126.715 285.453 126.765C285.666 126.787 285.874 126.796 286.048 126.791C288.924 126.741 292.169 126.868 294.989 126.799C295.33 126.783 295.709 126.78 296.113 126.789C297.021 126.83 297.81 126.804 298.36 126.715C298.656 126.668 299.036 126.642 299.476 126.639C299.915 126.636 300.404 126.655 300.912 126.697C301.757 126.751 302.538 126.757 303.172 126.714C304.409 126.674 305.71 126.657 307.065 126.664C307.48 126.672 307.845 126.656 308.131 126.619C308.417 126.582 308.618 126.524 308.716 126.451C308.383 126.326 308.02 126.311 307.674 126.322C306.336 126.294 305 126.26 303.687 126.246C302.511 126.208 301.383 126.196 300.319 126.211C299.79 126.228 299.131 126.189 298.485 126.103C297.693 125.995 296.877 125.941 296.202 125.952C295.702 125.955 295.174 125.946 294.626 125.924C294.275 125.898 293.916 125.854 293.584 125.795C293.453 125.77 293.31 125.748 293.164 125.732C293.019 125.716 292.874 125.706 292.739 125.702C292.604 125.699 292.482 125.701 292.381 125.71C292.28 125.719 292.201 125.735 292.151 125.755C291.644 125.925 290.509 125.838 289.537 125.819C288.081 125.532 286.998 125.702 285.637 125.539C285.529 125.529 285.423 125.522 285.325 125.52C285.227 125.518 285.14 125.521 285.067 125.529C282.434 125.626 279.365 125.545 276.6 125.579C276.295 125.584 275.941 125.567 275.578 125.53C273.208 125.286 270.929 125.216 269.187 125.335C268.975 125.346 268.734 125.347 268.474 125.337C267.283 125.24 266.144 125.201 265.153 125.224C263.598 125.217 262.104 125.223 260.524 125.2C259.435 125.168 258.48 125.202 257.754 125.299C257.731 125.338 257.248 125.296 256.878 125.292C256.665 125.194 256.48 125.105 256.26 125.018C256.064 124.911 255.77 124.802 255.398 124.699C255.026 124.597 254.586 124.502 254.105 124.423C253.285 124.321 253.203 124.174 253.777 124.12C255.257 123.94 257.119 123.867 259.225 123.904C260.985 123.908 262.777 123.914 264.562 123.933C265.604 123.948 266.702 123.982 267.715 123.989C268.056 124.002 268.408 124.021 268.764 124.047C269.202 124.084 269.627 124.104 270.017 124.106C271.267 124.075 272.663 124.102 274.137 124.187C274.677 124.205 275.196 124.211 275.685 124.205C276.843 124.182 278.098 124.199 279.417 124.255C280.237 124.287 281.032 124.304 281.794 124.305C282.063 124.308 282.282 124.282 282.541 124.302C284.822 124.513 286.437 124.361 288.49 124.442C289.488 124.464 290.441 124.464 291.337 124.442C293.084 124.443 294.88 124.466 296.718 124.511C299.148 124.585 301.399 124.559 303.719 124.59C304.177 124.596 304.62 124.595 305.043 124.587C307.102 124.53 309.338 124.542 311.698 124.623C312.233 124.634 312.714 124.62 313.111 124.581C313.507 124.541 313.811 124.478 314.002 124.394C314.082 124.337 314.03 124.262 313.855 124.185C313.563 124.086 313.235 123.989 312.873 123.896L299.741 123.584C299.189 123.567 298.652 123.559 298.13 123.557C296.596 123.555 295.015 123.53 293.395 123.484C291.794 123.441 290.264 123.449 288.713 123.436C288.256 123.432 287.787 123.422 287.308 123.405C284.07 123.278 280.911 123.2 277.856 123.172C276.571 123.168 275.182 123.11 273.872 123.091C272.561 123.072 270.77 123.065 269.215 123.058L264.402 123.059C263.456 123.055 262.534 123.066 261.616 123.072C260.501 122.665 260.117 122.57 258.63 122.392C258.122 122.326 257.604 122.287 257.139 122.279C255.662 122.311 253.81 122.177 252.41 122.195C251.565 122.186 250.849 122.231 250.333 122.325C249.886 122.4 249.374 122.458 248.806 122.501C247.25 122.153 247.113 121.927 248.283 121.839C248.601 121.818 249.037 121.825 249.266 121.781C249.398 121.755 249.577 121.74 249.791 121.737C250.004 121.735 250.245 121.745 250.495 121.766C251.285 121.823 252.025 121.837 252.641 121.805C253.221 121.763 253.932 121.765 254.705 121.81C255.273 121.88 255.773 121.781 256.264 121.752C256.756 121.724 257.159 121.672 257.927 121.749C258.067 121.764 258.207 121.774 258.335 121.776C258.462 121.778 258.575 121.774 258.664 121.763C259.488 121.713 260.472 121.718 261.536 121.778C263.166 121.837 264.696 121.839 266.073 121.785C266.896 121.737 267.599 121.653 268.152 121.535C268.303 121.495 268.527 121.471 268.803 121.466C270.188 121.49 271.691 121.583 273.217 121.738C273.791 121.8 274.365 121.849 274.926 121.884C276.079 121.962 277.194 122.005 278.238 122.013C279.755 122.015 281.335 122.045 282.963 122.103C283.968 122.135 284.936 122.147 285.856 122.139C286.802 122.135 287.812 122.159 288.863 122.212C289.908 122.256 290.828 122.231 291.514 122.141C291.74 122.092 291.922 122.035 292.057 121.969C290.527 121.756 288.944 121.647 287.628 121.665C287.128 121.651 286.713 121.665 286.186 121.582L286.169 121.61C286.065 121.628 285.907 121.632 285.725 121.622C285.544 121.612 285.352 121.588 285.186 121.554C285.249 121.448 285.308 121.348 285.351 121.276C286.354 121.289 287.328 121.288 288.267 121.273C289.059 121.251 290.135 121.438 290.82 121.368C292.157 121.456 293.009 121.334 294.208 121.37C295.407 121.405 296.728 121.52 297.927 121.555C298.973 121.575 299.989 121.579 300.969 121.568C301.308 121.553 301.698 121.556 302.115 121.579C302.703 121.62 303.249 121.627 303.691 121.599C304.134 121.57 304.455 121.507 304.617 121.417C304.464 121.332 304.258 121.223 304.02 121.11C304.458 121.017 305.122 120.978 305.916 120.998L307.037 120.994C307.334 120.996 307.561 120.971 307.671 120.924C307.781 120.876 307.766 120.81 307.629 120.739C305.503 120.38 305.425 120.34 303.865 120.571L301.793 120.464L301.828 120.462ZM329.845 121.448L329.687 121.428L329.845 121.448ZM587.978 159.623L587.942 159.684L587.981 159.617L588.328 159.66L588.351 159.621L587.978 159.623ZM537.557 132.799C537.067 132.732 536.571 132.671 536.074 132.615C535.943 132.607 535.822 132.605 535.718 132.61C535.615 132.614 535.534 132.626 535.481 132.643C535.441 132.71 535.719 132.756 535.971 132.788C536.29 132.83 536.615 132.857 536.914 132.865C537.213 132.874 537.474 132.864 537.671 132.837L537.956 132.813L537.557 132.799ZM284.737 149.071C285.061 149.082 285.367 149.084 285.649 149.076C286.901 149.022 288.1 148.944 289.383 148.894C291.003 148.767 292.864 148.715 294.896 148.741C295.69 148.753 296.361 148.712 296.83 148.622C297.111 148.573 297.474 148.545 297.896 148.539L303.27 148.392C303.602 148.362 303.889 148.319 304.124 148.265C303.651 148.206 303.335 148.167 303.146 148.144C302.753 148.137 302.415 148.155 302.166 148.196C301.899 148.264 301.447 148.292 300.901 148.272C300.349 148.256 299.811 148.247 299.29 148.246C298.305 148.249 297.314 148.264 296.326 148.273C295.941 148.464 294.807 148.377 293.835 148.358L293.084 148.367C290.631 148.466 288.287 148.602 286.065 148.775C285.635 148.805 285.265 148.851 284.966 148.914C284.853 148.963 284.817 149.024 284.86 149.092L284.703 149.073L284.737 149.071ZM394.301 167.359C394.897 167.372 395.516 167.398 396.152 167.438C396.641 167.479 397.119 167.504 397.565 167.512C400.068 167.555 402.676 167.654 405.354 167.808C405.704 167.831 406.04 167.842 406.35 167.842L408.542 167.802C409.233 167.781 409.246 167.758 408.743 167.463C408.326 167.406 407.904 167.354 407.48 167.307C407.228 167.275 406.817 167.225 406.721 167.272C406.136 167.403 405.067 167.318 404.169 167.291C401.568 167.219 398.886 167.114 396.26 167.028C395.704 167.007 395.167 166.996 394.652 166.996C394.332 166.991 394.041 167 393.79 167.02C393.717 167.023 393.655 167.029 393.61 167.039C393.565 167.048 393.536 167.062 393.527 167.077C393.517 167.093 393.527 167.111 393.556 167.13C393.584 167.149 393.63 167.169 393.691 167.187C393.906 167.253 394.154 167.316 394.428 167.374L394.301 167.359ZM413.355 124.517L415.917 124.482C416.224 124.478 416.485 124.439 416.814 124.455C418.568 124.509 420.193 124.494 421.618 124.411C422.103 124.378 422.671 124.371 423.29 124.392C425.186 124.453 426.974 124.455 428.606 124.399C429.661 124.388 430.648 124.35 431.553 124.286C431.623 124.272 431.666 124.252 431.681 124.228C431.695 124.204 431.68 124.176 431.636 124.147C431.624 124.129 431.593 124.109 431.545 124.09C431.496 124.07 431.432 124.051 431.355 124.034C431.278 124.016 431.192 124.001 431.101 123.989C431.01 123.977 430.918 123.968 430.829 123.964C429.686 123.878 428.601 123.848 427.662 123.876C426.792 123.91 425.855 123.92 424.866 123.906C423.919 123.902 423.277 124.014 422.107 123.929C421.613 123.901 421.176 123.91 420.872 123.955C420.259 124.029 419.404 124.033 418.459 123.967C417.893 123.933 417.353 123.918 416.858 123.923C415.657 123.948 414.51 123.997 413.398 124.044C413.047 124.055 412.671 124.057 412.277 124.049L406.706 123.956C405.368 123.928 404.032 123.894 402.719 123.88C401.644 123.851 400.644 123.86 399.754 123.907C398.805 123.957 397.771 123.977 396.669 123.967C394.959 123.994 393.258 124.004 391.396 124.001C390.209 124.003 388.993 123.996 387.753 123.974C387.125 123.945 386.592 123.968 386.257 124.039C386.053 124.097 385.573 124.05 385.174 124.036C383.048 123.906 381.054 123.875 379.331 123.946C379.111 123.957 378.87 123.961 378.612 123.958C376.953 123.956 375.234 123.94 373.642 123.94C373.222 123.945 372.828 123.96 372.463 123.985C372.502 124.025 372.613 124.068 372.774 124.106C372.935 124.144 373.132 124.173 373.326 124.187C374.832 124.299 376.286 124.358 377.628 124.362C379.86 124.348 382.199 124.38 384.62 124.457C386.498 124.536 388.21 124.519 389.63 124.409C390.739 124.327 392.183 124.358 393.712 124.497C394.366 124.563 395.002 124.589 395.531 124.573C396.04 124.55 396.624 124.556 397.25 124.588C398.568 124.65 399.836 124.679 401.028 124.674C402.194 124.651 403.281 124.589 404.479 124.57C405.676 124.551 407.499 124.562 408.976 124.53C410.452 124.498 411.912 124.493 413.355 124.517ZM307.182 121.263C307.318 121.435 307.797 121.542 308.312 121.587C310.087 121.791 311.843 121.878 313.283 121.833C314.061 121.77 315.098 121.794 316.191 121.901C317.464 122.011 318.653 122.029 319.549 121.952C319.769 121.939 319.937 121.91 320.039 121.869C320.059 121.836 320.095 121.775 320.101 121.764C320.007 121.736 319.892 121.709 319.764 121.687C319.636 121.665 319.499 121.648 319.364 121.637L313.482 121.44L312.457 121.396C310.585 121.283 308.802 121.238 307.182 121.263ZM318.751 123.985C319.669 124.266 319.672 124.261 320.142 124.325C322.411 124.592 324.678 124.736 326.674 124.74C327.118 124.739 327.494 124.712 327.772 124.661C327.914 124.654 328.005 124.632 328.024 124.599C328.043 124.567 327.989 124.527 327.874 124.488L327.144 124.29C325.818 124.205 324.512 124.136 323.232 124.086C321.742 124.027 320.422 124.025 318.877 124.001L318.751 123.985ZM394.191 166.115C395.047 166.501 395.05 166.496 396.482 166.595C397.48 166.666 398.448 166.708 399.357 166.719C400.468 166.731 401.607 166.752 402.715 166.77C402.986 166.783 403.215 166.772 403.358 166.742C403.502 166.711 403.549 166.662 403.492 166.604C403.346 166.541 403.119 166.48 402.846 166.431C402.574 166.382 402.272 166.348 401.991 166.334L401.386 166.325C400.652 166.306 399.89 166.277 399.181 166.273C398.721 166.289 398.188 166.276 397.623 166.237C397.059 166.197 396.479 166.13 395.928 166.043L394.191 166.115ZM323.318 121.768C323.547 121.835 323.805 121.899 324.086 121.959C325.176 122.124 326.329 122.218 327.319 122.222C327.788 122.232 328.216 122.195 328.693 122.249C329.548 122.319 330.377 122.357 331.134 122.36C331.134 122.36 331.347 122.344 331.417 122.341L331.562 122.096C331.203 122.04 330.829 121.993 330.457 121.959C329.208 121.894 327.98 121.85 326.756 121.8C325.532 121.75 325.105 121.727 324.304 121.705C323.947 121.717 323.617 121.738 323.318 121.768ZM296.268 152.201L297.903 152.702C298.432 152.746 298.926 152.753 299.31 152.724C299.694 152.696 299.947 152.631 300.031 152.542C300.165 152.5 300.179 152.437 300.068 152.368C299.958 152.299 299.732 152.228 299.438 152.17C299.155 152.101 298.832 152.039 298.489 151.989C298.146 151.938 297.79 151.899 297.444 151.875L296.268 152.201ZM309.878 149.706C308.809 149.621 307.786 149.587 306.888 149.605C306.323 149.654 305.556 149.639 304.746 149.56C303.273 149.404 301.852 149.361 300.785 149.44C300.785 149.44 300.745 149.507 300.564 149.526C300.383 149.546 301.101 149.593 301.259 149.612C302.416 149.66 303.581 149.697 304.587 149.714C305.212 149.713 305.873 149.729 306.559 149.761C307.502 149.81 308.397 149.826 309.208 149.808C309.208 149.808 309.521 149.793 309.875 149.712L309.878 149.706ZM424.059 123.609C423.548 123.515 422.995 123.438 422.439 123.385C421.884 123.331 421.341 123.303 420.852 123.301C420.478 123.297 420.175 123.321 419.992 123.372C419.808 123.423 419.754 123.497 419.839 123.582C420.218 123.629 420.723 123.692 421.007 123.727C421.992 123.723 422.832 123.678 424.059 123.609ZM519.653 131.561C519.243 131.485 518.792 131.427 518.351 131.393C517.909 131.36 517.495 131.352 517.156 131.371C516.982 131.379 517.1 131.466 517.071 131.516C517.051 131.527 517.051 131.541 517.071 131.557C517.091 131.572 517.13 131.588 517.183 131.603C517.236 131.618 517.303 131.632 517.375 131.643C517.447 131.653 517.522 131.661 517.593 131.664C518.037 131.697 518.457 131.706 518.814 131.692C519.171 131.678 519.455 131.641 519.64 131.583L519.653 131.561ZM526.058 132.647C525.995 132.602 525.86 132.555 525.678 132.515C525.496 132.475 525.28 132.444 525.069 132.429C524.696 132.427 524.357 132.439 524.064 132.466C523.747 132.486 523.976 132.616 524.404 132.693C524.586 132.724 524.78 132.748 524.971 132.763C525.162 132.779 525.345 132.785 525.505 132.781C525.665 132.778 525.797 132.765 525.892 132.744C525.987 132.722 526.042 132.693 526.052 132.658L526.058 132.647ZM339.946 122.245C338.99 122.085 338.254 122.125 337.445 122.061C336.636 121.996 336.437 121.989 336.545 122.092C336.654 122.195 337.208 122.175 337.556 122.218C338.025 122.275 338.497 122.307 338.919 122.312C339.341 122.317 339.697 122.294 339.946 122.245ZM539.071 149.344C538.564 149.308 538.069 149.282 537.591 149.268C537.528 149.283 537.488 149.302 537.475 149.325C537.461 149.348 537.474 149.374 537.512 149.401C537.512 149.401 537.836 149.483 538.025 149.507C538.723 149.587 538.757 149.472 539.071 149.344ZM610.608 164.265C610.951 164.373 611.111 164.447 611.385 164.499C611.511 164.517 611.641 164.53 611.766 164.537C611.891 164.544 612.007 164.545 612.106 164.54C612.226 164.509 612.255 164.461 612.185 164.407C612.185 164.407 611.836 164.31 611.703 164.305C611.324 164.282 610.956 164.269 610.608 164.265ZM323.68 121.329C322.954 121.239 322.259 121.153 321.757 121.258C322.91 121.371 322.91 121.371 323.68 121.329ZM335.441 122.356C334.707 122.163 334.277 122.146 333.925 122.168C333.85 122.174 333.801 122.186 333.784 122.203C333.767 122.221 333.784 122.242 333.833 122.264C333.881 122.286 333.957 122.308 334.051 122.326C334.144 122.344 334.25 122.357 334.351 122.364C334.734 122.37 335.098 122.367 335.441 122.356ZM373.177 122.437C373.193 122.409 373.213 122.376 373.024 122.352C372.974 122.34 372.916 122.33 372.855 122.323C372.794 122.315 372.732 122.311 372.676 122.309C372.676 122.309 372.657 122.343 372.644 122.365L373.177 122.437ZM399.382 168.621L398.96 168.646L399.15 168.67L399.65 168.684L399.382 168.621ZM547.868 132.213C547.71 132.193 547.552 132.174 547.529 132.213C547.496 132.219 547.475 132.227 547.469 132.238C547.462 132.249 547.471 132.261 547.493 132.274C547.493 132.274 547.714 132.301 547.808 132.313L547.868 132.213ZM523.284 132.524C523.18 132.522 523.087 132.525 523.009 132.532L522.989 132.565L523.305 132.604L523.284 132.524ZM309.044 140.478C308.922 140.458 308.793 140.442 308.666 140.431L308.508 140.411C308.508 140.411 308.677 140.468 308.772 140.48C308.867 140.492 308.943 140.477 309.044 140.478Z" fill="#DF6951"/>
</g>
<path d="M0.2 125V120.52L8.04 118.68L27.16 68.6H34.12L52.04 118.68L59.72 120.52V125H32.6V120.52L38.28 119.16L34.84 109.56H18.04L14.44 118.92L21.16 120.52V125H0.2ZM20.2 104.04H32.84L26.6 87L20.2 104.04ZM53.3637 89.24V85H72.4838V112.6C72.4838 115.32 72.8038 117.213 73.4438 118.28C74.1371 119.293 75.4971 119.8 77.5238 119.8C79.0704 119.8 80.6704 119.4 82.3238 118.6C83.9771 117.8 85.3104 116.733 86.3238 115.4V90.84L81.1237 89.24V85H98.7238V119H104.964V122.44C103.79 123.24 102.83 123.827 102.084 124.2C101.39 124.52 100.59 124.84 99.6837 125.16C98.8304 125.533 97.9238 125.8 96.9638 125.96C96.0571 126.12 95.2037 126.2 94.4038 126.2C90.5638 126.2 87.8704 124.467 86.3238 121C82.5371 124.467 77.8971 126.2 72.4037 126.2C64.2437 126.2 60.1637 122.013 60.1637 113.64V90.84L53.3637 89.24ZM105.043 90.6V87.4L118.643 77.72H121.603V85.4L131.523 85V90.6H121.603V113.48C121.603 116.093 121.896 117.933 122.483 119C123.07 120.067 124.27 120.6 126.083 120.6C127.416 120.6 129.203 120.12 131.443 119.16L132.723 123.64C129.523 125.347 126.136 126.2 122.563 126.2C113.71 126.2 109.283 122.093 109.283 113.88V90.6H105.043ZM154.077 126.2C151.037 126.2 148.184 125.667 145.517 124.6C142.904 123.533 140.637 122.067 138.717 120.2C136.797 118.333 135.277 116.093 134.157 113.48C133.037 110.867 132.477 108.013 132.477 104.92C132.477 101.827 133.037 99 134.157 96.44C135.277 93.8267 136.797 91.5867 138.717 89.72C140.637 87.8533 142.904 86.4133 145.517 85.4C148.184 84.3333 151.037 83.8 154.077 83.8C157.117 83.8 159.944 84.3333 162.557 85.4C165.171 86.4133 167.437 87.8533 169.357 89.72C171.331 91.5867 172.851 93.8267 173.917 96.44C175.037 99 175.597 101.827 175.597 104.92C175.597 107.96 175.037 110.787 173.917 113.4C172.851 116.013 171.331 118.28 169.357 120.2C167.437 122.067 165.171 123.533 162.557 124.6C159.944 125.667 157.117 126.2 154.077 126.2ZM145.357 104.92C145.357 109.933 146.077 113.88 147.517 116.76C149.011 119.587 151.197 121 154.077 121C156.957 121 159.117 119.587 160.557 116.76C162.051 113.88 162.797 109.933 162.797 104.92C162.797 99.96 162.051 96.0667 160.557 93.24C159.117 90.4133 156.957 89 154.077 89C151.197 89 149.011 90.4133 147.517 93.24C146.077 96.0667 145.357 99.96 145.357 104.92ZM177.475 125V120.76L184.275 119.16V92.28H177.475V88.04L190.275 85H196.595V88.28C200.222 85.2933 204.168 83.8 208.435 83.8C213.822 83.8 217.768 85.72 220.275 89.56C224.488 85.72 229.075 83.8 234.035 83.8C238.195 83.8 241.502 84.9733 243.955 87.32C246.462 89.6667 247.715 92.68 247.715 96.36V119.16L254.515 120.76V125H230.195V120.76L235.395 119.16V97.4C235.395 94.9467 234.915 93.24 233.955 92.28C232.995 91.32 231.502 90.84 229.475 90.84C227.235 90.84 224.728 91.9067 221.955 94.04C222.115 94.84 222.195 95.6133 222.195 96.36V119.16L227.395 120.76V125H204.595V120.76L209.795 119.16V97.4C209.795 94.9467 209.315 93.24 208.355 92.28C207.395 91.32 205.928 90.84 203.955 90.84C201.768 90.84 199.315 91.8 196.595 93.72V119.16L201.795 120.76V125H177.475ZM254.197 115.08C254.197 110.44 256.09 106.92 259.877 104.52C263.717 102.067 269.904 100.84 278.437 100.84V98.44C278.437 96.84 278.41 95.6933 278.357 95C278.357 94.2533 278.25 93.3733 278.037 92.36C277.824 91.3467 277.504 90.6267 277.077 90.2C276.704 89.7733 276.117 89.4 275.317 89.08C274.517 88.7067 273.53 88.52 272.357 88.52L262.197 97.32C258.57 95.24 256.757 92.0133 256.757 87.64L259.157 86.6C260.17 86.1733 262.144 85.6133 265.077 84.92C268.01 84.1733 270.864 83.8 273.637 83.8C285.104 83.8 290.837 88.3867 290.837 97.56V119H297.077V122.44C296.81 122.707 296.437 123.053 295.957 123.48C295.477 123.907 294.437 124.467 292.837 125.16C291.237 125.853 289.584 126.2 287.877 126.2C283.824 126.2 280.81 124.84 278.837 122.12C275.264 124.84 271.37 126.2 267.157 126.2C263.477 126.2 260.384 125.267 257.877 123.4C255.424 121.533 254.197 118.76 254.197 115.08ZM267.077 114.36C267.077 115.907 267.584 117.133 268.597 118.04C269.664 118.947 270.944 119.4 272.437 119.4C274.837 119.4 276.837 118.52 278.437 116.76V105.8C275.45 105.8 272.81 106.6 270.517 108.2C268.224 109.747 267.077 111.8 267.077 114.36ZM296.618 90.6V87.4L310.218 77.72H313.178V85.4L323.098 85V90.6H313.178V113.48C313.178 116.093 313.471 117.933 314.058 119C314.645 120.067 315.845 120.6 317.658 120.6C318.991 120.6 320.778 120.12 323.018 119.16L324.298 123.64C321.098 125.347 317.711 126.2 314.138 126.2C305.285 126.2 300.858 122.093 300.858 113.88V90.6H296.618ZM324.213 104.52C324.213 98.2267 325.973 93.2133 329.493 89.48C333.066 85.6933 337.893 83.8 343.973 83.8C350.159 83.8 354.826 85.9067 357.973 90.12C361.173 94.3333 362.773 99.5333 362.773 105.72H336.533C336.906 109.667 338.319 113.08 340.773 115.96C343.226 118.787 346.373 120.2 350.213 120.2C353.093 120.2 356.186 119.587 359.493 118.36L361.173 122.92C356.213 125.107 351.359 126.2 346.613 126.2C339.733 126.2 334.266 124.2 330.213 120.2C326.213 116.147 324.213 110.92 324.213 104.52ZM336.533 100.76L350.053 99.88C350.053 98.6 349.973 97.4267 349.813 96.36C349.653 95.24 349.199 93.9067 348.453 92.36C347.119 90.12 345.546 89 343.733 89C341.599 89 339.839 90.0933 338.453 92.28C337.653 93.6133 337.119 95.08 336.853 96.68C336.586 98.28 336.479 99.64 336.533 100.76ZM363.806 135.8C366.953 132.547 369.433 129.08 371.246 125.4L364.766 121.32C364.766 119.133 365.486 117.32 366.926 115.88C368.42 114.44 370.153 113.72 372.126 113.72C374.526 113.72 376.366 114.413 377.646 115.8C378.926 117.133 379.566 119.053 379.566 121.56C379.566 124.653 378.26 127.907 375.646 131.32C373.086 134.733 370.393 137.347 367.566 139.16L363.806 135.8ZM393.671 73.48V69H419.911V73.48L414.711 74.52L426.151 91.32L436.391 75.08L430.471 73.48V69H450.871V73.48L443.511 75.24L429.111 98.12V118.76L436.471 120.52V125H408.711V120.52L416.071 118.76V98.04L400.151 75.08L393.671 73.48ZM463.79 126.2C460.75 126.2 457.897 125.667 455.23 124.6C452.617 123.533 450.35 122.067 448.43 120.2C446.51 118.333 444.99 116.093 443.87 113.48C442.75 110.867 442.19 108.013 442.19 104.92C442.19 101.827 442.75 99 443.87 96.44C444.99 93.8267 446.51 91.5867 448.43 89.72C450.35 87.8533 452.617 86.4133 455.23 85.4C457.897 84.3333 460.75 83.8 463.79 83.8C466.83 83.8 469.657 84.3333 472.27 85.4C474.883 86.4133 477.15 87.8533 479.07 89.72C481.043 91.5867 482.563 93.8267 483.63 96.44C484.75 99 485.31 101.827 485.31 104.92C485.31 107.96 484.75 110.787 483.63 113.4C482.563 116.013 481.043 118.28 479.07 120.2C477.15 122.067 474.883 123.533 472.27 124.6C469.657 125.667 466.83 126.2 463.79 126.2ZM455.07 104.92C455.07 109.933 455.79 113.88 457.23 116.76C458.723 119.587 460.91 121 463.79 121C466.67 121 468.83 119.587 470.27 116.76C471.763 113.88 472.51 109.933 472.51 104.92C472.51 99.96 471.763 96.0667 470.27 93.24C468.83 90.4133 466.67 89 463.79 89C460.91 89 458.723 90.4133 457.23 93.24C455.79 96.0667 455.07 99.96 455.07 104.92ZM485.195 89.24V85H504.315V112.6C504.315 115.32 504.635 117.213 505.275 118.28C505.968 119.293 507.328 119.8 509.355 119.8C510.902 119.8 512.502 119.4 514.155 118.6C515.808 117.8 517.142 116.733 518.155 115.4V90.84L512.955 89.24V85H530.555V119H536.795V122.44C535.622 123.24 534.662 123.827 533.915 124.2C533.222 124.52 532.422 124.84 531.515 125.16C530.662 125.533 529.755 125.8 528.795 125.96C527.888 126.12 527.035 126.2 526.235 126.2C522.395 126.2 519.702 124.467 518.155 121C514.368 124.467 509.728 126.2 504.235 126.2C496.075 126.2 491.995 122.013 491.995 113.64V90.84L485.195 89.24ZM537.034 125V120.76L543.834 119.16V92.28H537.034V88.04L549.834 85H556.154V89.8C560.154 85.8 564.901 83.8 570.394 83.8C570.714 84.8133 570.874 85.9333 570.874 87.16C570.874 89.6133 570.608 91.9067 570.074 94.04L559.994 92.36C558.714 92.9467 557.434 93.8 556.154 94.92V119.16L564.554 120.76V125H537.034ZM2.76 174.96V158H51.96V174.96H47.08L43.8 164.16H33.88V207.76L41.24 209.52V214H13.48V209.52L20.84 207.76V164.16H10.84L7.56 174.96H2.76ZM51.5281 204.08C51.5281 199.44 53.4215 195.92 57.2081 193.52C61.0481 191.067 67.2348 189.84 75.7681 189.84V187.44C75.7681 185.84 75.7415 184.693 75.6881 184C75.6881 183.253 75.5815 182.373 75.3681 181.36C75.1548 180.347 74.8348 179.627 74.4081 179.2C74.0348 178.773 73.4481 178.4 72.6481 178.08C71.8481 177.707 70.8615 177.52 69.6881 177.52L59.5281 186.32C55.9015 184.24 54.0881 181.013 54.0881 176.64L56.4881 175.6C57.5015 175.173 59.4748 174.613 62.4081 173.92C65.3415 173.173 68.1948 172.8 70.9681 172.8C82.4348 172.8 88.1681 177.387 88.1681 186.56V208H94.4081V211.44C94.1415 211.707 93.7681 212.053 93.2881 212.48C92.8081 212.907 91.7681 213.467 90.1681 214.16C88.5681 214.853 86.9148 215.2 85.2081 215.2C81.1548 215.2 78.1415 213.84 76.1681 211.12C72.5948 213.84 68.7015 215.2 64.4881 215.2C60.8081 215.2 57.7148 214.267 55.2081 212.4C52.7548 210.533 51.5281 207.76 51.5281 204.08ZM64.4081 203.36C64.4081 204.907 64.9148 206.133 65.9281 207.04C66.9948 207.947 68.2748 208.4 69.7681 208.4C72.1681 208.4 74.1681 207.52 75.7681 205.76V194.8C72.7815 194.8 70.1415 195.6 67.8481 197.2C65.5548 198.747 64.4081 200.8 64.4081 203.36ZM95.0694 213.36V201.92H99.5494L102.429 209.84C104.349 209.947 105.869 210 106.989 210C113.229 210 116.349 208.64 116.349 205.92C116.349 204.8 115.789 203.84 114.669 203.04C113.549 202.187 112.483 201.52 111.469 201.04C110.456 200.56 108.536 199.707 105.709 198.48C102.029 196.88 99.336 195.067 97.6294 193.04C95.976 190.96 95.1494 188.293 95.1494 185.04C95.1494 181.04 96.7494 178 99.9494 175.92C103.203 173.84 107.443 172.8 112.669 172.8C117.416 172.8 121.496 173.307 124.909 174.32V185.2H120.749L118.269 178.16C116.669 177.893 115.069 177.76 113.469 177.76C108.349 177.76 105.789 179.013 105.789 181.52C105.789 182.16 106.029 182.827 106.509 183.52C106.989 184.213 107.843 184.907 109.069 185.6C110.349 186.293 112.349 187.227 115.069 188.4C119.923 190.587 123.203 192.72 124.909 194.8C126.616 196.827 127.469 199.573 127.469 203.04C127.469 206.987 125.843 210 122.589 212.08C119.336 214.16 115.016 215.2 109.629 215.2C104.563 215.2 99.7094 214.587 95.0694 213.36ZM128.225 214V209.76L135.025 208.16V157.28H128.225V153.04L141.025 150H147.345V208.16L152.545 209.76V214H128.225ZM148.785 194.72L162.865 179.44L158.065 178.24V174H176.865V178.24L169.585 179.76L160.385 189.92L171.665 208.24L178.065 209.76V214H160.465L148.785 194.72ZM178.904 213.36V201.92H183.384L186.264 209.84C188.184 209.947 189.704 210 190.824 210C197.064 210 200.184 208.64 200.184 205.92C200.184 204.8 199.624 203.84 198.504 203.04C197.384 202.187 196.317 201.52 195.304 201.04C194.29 200.56 192.37 199.707 189.544 198.48C185.864 196.88 183.17 195.067 181.464 193.04C179.81 190.96 178.984 188.293 178.984 185.04C178.984 181.04 180.584 178 183.784 175.92C187.037 173.84 191.277 172.8 196.504 172.8C201.25 172.8 205.33 173.307 208.744 174.32V185.2H204.584L202.104 178.16C200.504 177.893 198.904 177.76 197.304 177.76C192.184 177.76 189.624 179.013 189.624 181.52C189.624 182.16 189.864 182.827 190.344 183.52C190.824 184.213 191.677 184.907 192.904 185.6C194.184 186.293 196.184 187.227 198.904 188.4C203.757 190.587 207.037 192.72 208.744 194.8C210.45 196.827 211.304 199.573 211.304 203.04C211.304 206.987 209.677 210 206.424 212.08C203.17 214.16 198.85 215.2 193.464 215.2C188.397 215.2 183.544 214.587 178.904 213.36ZM242.964 200.72C242.964 194 247.018 188.693 255.124 184.8C252.564 181.92 250.724 179.36 249.604 177.12C248.484 174.827 247.924 172.347 247.924 169.68C247.924 165.68 249.364 162.533 252.244 160.24C255.178 157.947 259.231 156.8 264.404 156.8C269.471 156.8 273.444 158.027 276.324 160.48C279.258 162.88 280.724 165.84 280.724 169.36C280.724 175.12 276.831 180.08 269.044 184.24L280.884 195.92C281.844 193.627 282.538 191.04 282.964 188.16L278.164 186.4V182H295.364V186.4L288.564 188.16C287.924 192.48 286.751 196.4 285.044 199.92L293.044 207.52L301.924 209.6V214H285.284L279.364 208.32C274.884 212.907 269.231 215.2 262.404 215.2C256.271 215.2 251.498 213.947 248.084 211.44C244.671 208.933 242.964 205.36 242.964 200.72ZM253.924 200.16C253.924 202.933 254.804 205.147 256.564 206.8C258.324 208.4 260.671 209.2 263.604 209.2C268.404 209.2 272.351 207.653 275.444 204.56L259.364 189.2C255.738 192.293 253.924 195.947 253.924 200.16ZM258.164 168.8C258.164 169.973 258.404 171.12 258.884 172.24C259.364 173.307 260.058 174.4 260.964 175.52L264.884 179.76C268.618 176.773 270.484 173.2 270.484 169.04C270.484 166.907 269.924 165.227 268.804 164C267.684 162.773 266.164 162.16 264.244 162.16C262.431 162.16 260.964 162.747 259.844 163.92C258.724 165.093 258.164 166.72 258.164 168.8ZM315.934 214V209.52L323.294 207.76V164.24L315.934 162.48V158H358.414V174.4H353.694L350.494 164.16H336.334V182.72L351.214 181.36V189.28L336.334 188.08V207.84H350.654L356.094 196.72H360.814L358.414 214H315.934ZM362.884 214V209.76L369.684 208.16V181.28H362.884V177.04L375.684 174H382.004V177.92C385.258 174.507 389.284 172.8 394.084 172.8C396.164 172.8 398.031 173.12 399.684 173.76C401.391 174.347 402.804 175.2 403.924 176.32C405.098 177.44 406.004 178.773 406.644 180.32C407.284 181.867 407.604 183.547 407.604 185.36V208.16L414.404 209.76V214H390.084V209.76L395.284 208.16V187.6C395.284 185.947 395.178 184.613 394.964 183.6C394.804 182.587 394.511 181.813 394.084 181.28C393.658 180.693 393.071 180.32 392.324 180.16C391.631 179.947 390.751 179.84 389.684 179.84C387.658 179.84 385.098 181.013 382.004 183.36V208.16L387.204 209.76V214H362.884ZM411.337 234.96C414.164 232.56 416.271 229.733 417.657 226.48C419.044 223.227 419.737 219.067 419.737 214V181.28H412.937V177.04L425.737 174H432.057V214C432.057 224.667 426.244 233.173 414.617 239.52L411.337 234.96ZM418.457 161.68C418.457 159.6 419.177 157.867 420.617 156.48C422.057 155.04 423.817 154.32 425.897 154.32C428.031 154.32 429.791 155.04 431.177 156.48C432.617 157.867 433.337 159.6 433.337 161.68C433.337 163.813 432.617 165.6 431.177 167.04C429.791 168.48 428.031 169.2 425.897 169.2C423.817 169.2 422.057 168.48 420.617 167.04C419.177 165.6 418.457 163.813 418.457 161.68ZM458.793 215.2C455.753 215.2 452.9 214.667 450.233 213.6C447.62 212.533 445.353 211.067 443.433 209.2C441.513 207.333 439.993 205.093 438.873 202.48C437.753 199.867 437.193 197.013 437.193 193.92C437.193 190.827 437.753 188 438.873 185.44C439.993 182.827 441.513 180.587 443.433 178.72C445.353 176.853 447.62 175.413 450.233 174.4C452.9 173.333 455.753 172.8 458.793 172.8C461.833 172.8 464.66 173.333 467.273 174.4C469.886 175.413 472.153 176.853 474.073 178.72C476.046 180.587 477.566 182.827 478.633 185.44C479.753 188 480.313 190.827 480.313 193.92C480.313 196.96 479.753 199.787 478.633 202.4C477.566 205.013 476.046 207.28 474.073 209.2C472.153 211.067 469.886 212.533 467.273 213.6C464.66 214.667 461.833 215.2 458.793 215.2ZM450.073 193.92C450.073 198.933 450.793 202.88 452.233 205.76C453.726 208.587 455.913 210 458.793 210C461.673 210 463.833 208.587 465.273 205.76C466.766 202.88 467.513 198.933 467.513 193.92C467.513 188.96 466.766 185.067 465.273 182.24C463.833 179.413 461.673 178 458.793 178C455.913 178 453.726 179.413 452.233 182.24C450.793 185.067 450.073 188.96 450.073 193.92ZM478.297 178.24V174H503.017V178.24L497.737 179.2L508.057 199.76L515.577 179.76L509.497 178.24V174H528.057V178.24L521.417 180.08L499.097 237.92H497.657C496.057 237.92 494.537 237.573 493.097 236.88C491.71 236.187 490.724 235.333 490.137 234.32L501.737 215.84L484.297 179.92L478.297 178.24ZM3.64 303V298.52L11 296.76V253.24L3.64 251.48V247H46.12V263.4H41.4L38.2 253.16H24.04V271.72L38.92 270.36V278.28L24.04 277.08V296.84H38.36L43.8 285.72H48.52L46.12 303H3.64ZM50.5906 293.08C50.5906 288.44 52.484 284.92 56.2706 282.52C60.1106 280.067 66.2973 278.84 74.8306 278.84V276.44C74.8306 274.84 74.804 273.693 74.7506 273C74.7506 272.253 74.644 271.373 74.4306 270.36C74.2173 269.347 73.8973 268.627 73.4706 268.2C73.0973 267.773 72.5106 267.4 71.7106 267.08C70.9106 266.707 69.924 266.52 68.7506 266.52L58.5906 275.32C54.964 273.24 53.1506 270.013 53.1506 265.64L55.5506 264.6C56.564 264.173 58.5373 263.613 61.4706 262.92C64.404 262.173 67.2573 261.8 70.0306 261.8C81.4973 261.8 87.2306 266.387 87.2306 275.56V297H93.4706V300.44C93.204 300.707 92.8306 301.053 92.3506 301.48C91.8706 301.907 90.8306 302.467 89.2306 303.16C87.6306 303.853 85.9773 304.2 84.2706 304.2C80.2173 304.2 77.204 302.84 75.2306 300.12C71.6573 302.84 67.764 304.2 63.5506 304.2C59.8706 304.2 56.7773 303.267 54.2706 301.4C51.8173 299.533 50.5906 296.76 50.5906 293.08ZM63.4706 292.36C63.4706 293.907 63.9773 295.133 64.9906 296.04C66.0573 296.947 67.3373 297.4 68.8306 297.4C71.2306 297.4 73.2306 296.52 74.8306 294.76V283.8C71.844 283.8 69.204 284.6 66.9106 286.2C64.6173 287.747 63.4706 289.8 63.4706 292.36ZM94.1319 302.36V290.92H98.6119L101.492 298.84C103.412 298.947 104.932 299 106.052 299C112.292 299 115.412 297.64 115.412 294.92C115.412 293.8 114.852 292.84 113.732 292.04C112.612 291.187 111.545 290.52 110.532 290.04C109.519 289.56 107.599 288.707 104.772 287.48C101.092 285.88 98.3985 284.067 96.6919 282.04C95.0385 279.96 94.2119 277.293 94.2119 274.04C94.2119 270.04 95.8119 267 99.0119 264.92C102.265 262.84 106.505 261.8 111.732 261.8C116.479 261.8 120.559 262.307 123.972 263.32V274.2H119.812L117.332 267.16C115.732 266.893 114.132 266.76 112.532 266.76C107.412 266.76 104.852 268.013 104.852 270.52C104.852 271.16 105.092 271.827 105.572 272.52C106.052 273.213 106.905 273.907 108.132 274.6C109.412 275.293 111.412 276.227 114.132 277.4C118.985 279.587 122.265 281.72 123.972 283.8C125.679 285.827 126.532 288.573 126.532 292.04C126.532 295.987 124.905 299 121.652 301.08C118.399 303.16 114.079 304.2 108.692 304.2C103.625 304.2 98.7719 303.587 94.1319 302.36ZM125.688 267.24V263H150.408V267.24L145.128 268.2L155.448 288.76L162.968 268.76L156.888 267.24V263H175.448V267.24L168.808 269.08L146.488 326.92H145.048C143.448 326.92 141.928 326.573 140.488 325.88C139.101 325.187 138.114 324.333 137.528 323.32L149.128 304.84L131.688 268.92L125.688 267.24ZM189.202 303V298.52L196.562 296.76V253.24L189.202 251.48V247H216.963V251.48L209.603 253.24V296.84H224.163L229.603 285.72H234.083L231.683 303H189.202ZM234.044 303V298.76L240.844 297.16V270.28H234.044V266.04L246.844 263H253.164V297.16L259.964 298.76V303H234.044ZM239.564 250.68C239.564 248.6 240.284 246.867 241.724 245.48C243.164 244.04 244.924 243.32 247.004 243.32C249.137 243.32 250.897 244.04 252.284 245.48C253.724 246.867 254.444 248.6 254.444 250.68C254.444 252.813 253.724 254.6 252.284 256.04C250.897 257.48 249.137 258.2 247.004 258.2C244.924 258.2 243.164 257.48 241.724 256.04C240.284 254.6 239.564 252.813 239.564 250.68ZM260.135 303V298.76L266.935 297.16V268.12H260.215V263.56L266.935 263.08V257.08C266.935 250.84 268.348 246.067 271.175 242.76C274.055 239.453 278.162 237.8 283.495 237.8C285.735 237.8 288.082 238.04 290.535 238.52C292.988 238.947 294.882 239.373 296.215 239.8L298.215 240.44C298.268 242.307 297.815 244.147 296.855 245.96C295.948 247.72 294.775 248.973 293.335 249.72L286.695 243C285.628 243 284.695 243.16 283.895 243.48C283.148 243.8 282.375 244.413 281.575 245.32C280.828 246.227 280.242 247.667 279.815 249.64C279.442 251.613 279.255 254.093 279.255 257.08V262.28L290.215 261.56V268.12H279.255V297.16L288.695 298.76V303H260.135ZM290.544 282.52C290.544 276.227 292.304 271.213 295.824 267.48C299.397 263.693 304.224 261.8 310.304 261.8C316.49 261.8 321.157 263.907 324.304 268.12C327.504 272.333 329.104 277.533 329.104 283.72H302.864C303.237 287.667 304.65 291.08 307.104 293.96C309.557 296.787 312.704 298.2 316.544 298.2C319.424 298.2 322.517 297.587 325.824 296.36L327.504 300.92C322.544 303.107 317.69 304.2 312.944 304.2C306.064 304.2 300.597 302.2 296.544 298.2C292.544 294.147 290.544 288.92 290.544 282.52ZM302.864 278.76L316.384 277.88C316.384 276.6 316.304 275.427 316.144 274.36C315.984 273.24 315.53 271.907 314.784 270.36C313.45 268.12 311.877 267 310.064 267C307.93 267 306.17 268.093 304.784 270.28C303.984 271.613 303.45 273.08 303.184 274.68C302.917 276.28 302.81 277.64 302.864 278.76ZM346.03 297.96C346.03 296.147 346.697 294.573 348.03 293.24C349.417 291.853 351.043 291.16 352.91 291.16C354.777 291.16 356.377 291.827 357.71 293.16C359.043 294.493 359.71 296.093 359.71 297.96C359.71 299.72 359.043 301.32 357.71 302.76C356.377 304.147 354.777 304.84 352.91 304.84C351.043 304.84 349.417 304.147 348.03 302.76C346.697 301.32 346.03 299.72 346.03 297.96Z" fill="#181E4B"/>
</svg>
