<svg width="8" height="5" viewBox="0 0 8 5" fill="none" xmlns="http://www.w3.org/2000/svg">
<path d="M7.38784 2.73275C7.43248 2.66267 7.45609 2.58126 7.45585 2.49817C7.45561 2.41508 7.43154 2.33381 7.38649 2.26399C7.02966 1.71216 6.5667 1.2434 6.04777 0.908282C5.47288 0.537158 4.83906 0.340942 4.21441 0.340942C3.8851 0.341395 3.55804 0.395086 3.24587 0.499938C3.23713 0.502844 3.22929 0.507937 3.22307 0.514735C3.21686 0.521532 3.21249 0.529805 3.21039 0.538768C3.20828 0.547731 3.2085 0.557084 3.21103 0.565938C3.21355 0.574791 3.21831 0.58285 3.22483 0.589347L3.86189 1.22641C3.86851 1.23304 3.87674 1.23783 3.88577 1.24031C3.89481 1.2428 3.90433 1.24288 3.91341 1.24057C4.12935 1.18794 4.3552 1.1918 4.56921 1.25176C4.78323 1.31173 4.9782 1.42578 5.13536 1.58294C5.29252 1.7401 5.40658 1.93508 5.46654 2.14909C5.5265 2.36311 5.53036 2.58896 5.47774 2.8049C5.47545 2.81395 5.47555 2.82345 5.47803 2.83246C5.48051 2.84146 5.48529 2.84967 5.4919 2.85628L6.40824 3.7733C6.41778 3.78285 6.43054 3.78848 6.44403 3.78908C6.45751 3.78968 6.47072 3.7852 6.48107 3.77653C6.83379 3.47588 7.13945 3.12404 7.38784 2.73275ZM4.21872 3.79326C4.02274 3.79327 3.82932 3.74878 3.65303 3.66316C3.47674 3.57754 3.3222 3.45301 3.20104 3.29896C3.07989 3.14492 2.99529 2.96538 2.95363 2.77388C2.91196 2.58238 2.91432 2.38392 2.96051 2.19346C2.96281 2.1844 2.96271 2.17491 2.96022 2.1659C2.95774 2.15689 2.95296 2.14868 2.94635 2.14208L2.04498 1.2403C2.03542 1.23073 2.02262 1.2251 2.0091 1.22452C1.99559 1.22395 1.98236 1.22847 1.97202 1.2372C1.64311 1.51783 1.3382 1.85929 1.05945 2.25832C1.01066 2.32836 0.983784 2.41131 0.982248 2.49665C0.980711 2.58199 1.00458 2.66586 1.05082 2.7376C1.40697 3.29496 1.86521 3.7644 2.37618 4.09493C2.95188 4.46754 3.57033 4.65633 4.21441 4.65633C4.54703 4.65544 4.8775 4.6029 5.194 4.50058C5.20282 4.49776 5.21076 4.49272 5.21706 4.48595C5.22337 4.47918 5.22783 4.4709 5.23001 4.4619C5.23219 4.45291 5.23202 4.44351 5.22952 4.4346C5.22701 4.42569 5.22226 4.41757 5.21571 4.41103L4.57555 3.771C4.56895 3.7644 4.56074 3.75962 4.55173 3.75714C4.54272 3.75465 4.53323 3.75455 4.52417 3.75684C4.42416 3.78108 4.32162 3.7933 4.21872 3.79326V3.79326Z" fill="#313131"/>
</svg>
