<svg width="6" height="7" viewBox="0 0 6 7" fill="none" xmlns="http://www.w3.org/2000/svg">
<path d="M5.59222 6.08789C5.56388 6.08794 5.53581 6.08238 5.50963 6.07152C5.48346 6.06066 5.45969 6.04473 5.4397 6.02465L0.692764 1.27772C0.654008 1.23692 0.63272 1.1826 0.633441 1.12634C0.634161 1.07007 0.656832 1.01632 0.69662 0.976527C0.736408 0.936739 0.790166 0.914068 0.84643 0.913348C0.902695 0.912627 0.957015 0.933915 0.997808 0.972671L5.74474 5.7196C5.7749 5.74978 5.79543 5.78822 5.80375 5.83006C5.81206 5.8719 5.80779 5.91527 5.79147 5.95468C5.77515 5.9941 5.74751 6.02779 5.71204 6.0515C5.67658 6.07521 5.63488 6.08788 5.59222 6.08789V6.08789ZM3.11087 4.30577L2.41245 3.60735C2.40845 3.60338 2.4033 3.60077 2.39774 3.59987C2.39217 3.59898 2.38647 3.59985 2.38142 3.60237C2.37638 3.60488 2.37225 3.60891 2.36961 3.61389C2.36698 3.61888 2.36597 3.62456 2.36673 3.63014C2.39493 3.81134 2.48001 3.97888 2.60967 4.10855C2.73934 4.23821 2.90688 4.32329 3.08808 4.35149C3.09366 4.35225 3.09934 4.35124 3.10433 4.34861C3.10931 4.34597 3.11334 4.34184 3.11585 4.3368C3.11837 4.33175 3.11924 4.32605 3.11835 4.32048C3.11745 4.31492 3.11484 4.30977 3.11087 4.30577ZM3.32664 2.69155L4.02613 3.39077C4.03013 3.3948 4.03529 3.39746 4.04088 3.39839C4.04647 3.39932 4.05221 3.39846 4.05729 3.39593C4.06236 3.39341 4.06652 3.38935 4.06915 3.38433C4.07179 3.37932 4.07278 3.3736 4.07199 3.36798C4.04386 3.18654 3.95872 3.01876 3.82889 2.88893C3.69906 2.7591 3.53127 2.67395 3.34983 2.64583C3.34421 2.64496 3.33846 2.64589 3.33341 2.64849C3.32835 2.65108 3.32424 2.65521 3.32167 2.66028C3.31909 2.66535 3.31819 2.67111 3.31908 2.67672C3.31998 2.68233 3.32262 2.68752 3.32664 2.69155V2.69155Z" fill="#313131"/>
</svg>
